<svg id="newspaper_black_24dp" xmlns="http://www.w3.org/2000/svg" width="24" height="24" viewBox="0 0 24 24">
  <g id="Group_6278" data-name="Group 6278">
    <rect id="Rectangle_3046" data-name="Rectangle 3046" width="24" height="24" fill="none"/>
  </g>
  <g id="Group_6279" data-name="Group 6279">
    <path id="Path_2083" data-name="Path 2083" d="M22,3,20.33,4.67,18.67,3,17,4.67,15.33,3,13.67,4.67,12,3,10.33,4.67,8.67,3,7,4.67,5.33,3,3.67,4.67,2,3V19a2.006,2.006,0,0,0,2,2H20a2.006,2.006,0,0,0,2-2ZM11,19H4V13h7Zm9,0H13V17h7Zm0-4H13V13h7Zm0-4H4V8H20Z" fill="#303134"/>
  </g>
</svg>
