<svg id="monitor_heart_black_24dp_1_" data-name="monitor_heart_black_24dp (1)" xmlns="http://www.w3.org/2000/svg" width="24" height="24" viewBox="0 0 24 24">
  <g id="Group_6954" data-name="Group 6954">
    <rect id="Rectangle_3212" data-name="Rectangle 3212" width="24" height="24" fill="none"/>
  </g>
  <g id="Group_6956" data-name="Group 6956">
    <g id="Group_6955" data-name="Group 6955">
      <path id="Path_2379" data-name="Path 2379" d="M15.11,12.45,14,10.24l-3.11,6.21a1,1,0,0,1-1.78,0L7.38,13H2v5a2.006,2.006,0,0,0,2,2H20a2.006,2.006,0,0,0,2-2V13H16A.977.977,0,0,1,15.11,12.45Z" fill="#303134"/>
      <path id="Path_2380" data-name="Path 2380" d="M20,4H4A2.006,2.006,0,0,0,2,6v5H8a.977.977,0,0,1,.89.55L10,13.76l3.11-6.21a1.04,1.04,0,0,1,1.79,0L16.62,11H22V6A2.006,2.006,0,0,0,20,4Z" fill="#303134"/>
    </g>
  </g>
</svg>
