<svg id="handshake_black_24dp" xmlns="http://www.w3.org/2000/svg" width="24" height="24" viewBox="0 0 24 24">
  <g id="Group_6952" data-name="Group 6952">
    <rect id="Rectangle_3211" data-name="Rectangle 3211" width="24" height="24" fill="none"/>
  </g>
  <g id="Group_6953" data-name="Group 6953">
    <path id="Path_2378" data-name="Path 2378" d="M16.48,10.41a1.02,1.02,0,0,1-1.43,0L10.58,5.95,3.53,12.99l-.66-.63a3,3,0,0,1,0-4.24L7.11,3.88a3,3,0,0,1,4.24,0L16.48,9A1,1,0,0,1,16.48,10.41Zm.7-2.12a2,2,0,0,1,0,2.83,1.972,1.972,0,0,1-2.83,0L10.59,7.36,5.02,12.93a1,1,0,0,0,0,1.41,1.008,1.008,0,0,0,1.42,0l4.62-4.62.71.71L7.15,15.05a1,1,0,0,0,0,1.41,1.008,1.008,0,0,0,1.42,0l4.62-4.62.71.71L9.28,17.17a1,1,0,0,0,1.41,1.41l4.62-4.62.71.71L11.4,19.29a1,1,0,0,0,1.41,1.41l8.32-8.34a3,3,0,0,0,0-4.24L16.89,3.88a3,3,0,0,0-4.18-.06Z" fill="#303134"/>
  </g>
</svg>
