<svg id="medical_services_black_24dp_2_" data-name="medical_services_black_24dp (2)" xmlns="http://www.w3.org/2000/svg" width="24" height="24" viewBox="0 0 24 24">
  <g id="Group_6269" data-name="Group 6269">
    <rect id="Rectangle_3043" data-name="Rectangle 3043" width="24" height="24" fill="none"/>
  </g>
  <g id="Group_6271" data-name="Group 6271">
    <g id="Group_6270" data-name="Group 6270">
      <path id="Path_2076" data-name="Path 2076" d="M20,6H16V4a2.006,2.006,0,0,0-2-2H10A2.006,2.006,0,0,0,8,4V6H4A2.006,2.006,0,0,0,2,8V20a2.006,2.006,0,0,0,2,2H20a2.006,2.006,0,0,0,2-2V8A2.006,2.006,0,0,0,20,6ZM10,4h4V6H10Zm6,11H13v3H11V15H8V13h3V10h2v3h3Z" fill="#303134"/>
    </g>
  </g>
</svg>
