<svg id="Group_6803" data-name="Group 6803" xmlns="http://www.w3.org/2000/svg" xmlns:xlink="http://www.w3.org/1999/xlink" width="24" height="24" viewBox="0 0 24 24">
  <defs>
    <clipPath id="clip-path">
      <rect id="Rectangle_3116" data-name="Rectangle 3116" width="24" height="24" fill="none"/>
    </clipPath>
  </defs>
  <g id="Group_6802" data-name="Group 6802" clip-path="url(#clip-path)">
    <path id="Path_2178" data-name="Path 2178" d="M14.189,14.283c.042.55.073,1.286.073,2.283,0,2.925,4.212,3.569,6.038,3.714V18.225c0-2.137-3.331-3.454-6.111-3.942" fill="#303134"/>
    <path id="Path_2179" data-name="Path 2179" d="M16.555,20.3H3.7V18.225c0-2.76,5.53-4.15,8.3-4.15a10.361,10.361,0,0,1,1.214.073c.052.01.114.01.166.02a.128.128,0,0,0,.011.063c.02.259.041.57.051.975.011.259.021.539.021.871.011.156.011.312.011.488a3.237,3.237,0,0,0,.031.457,3.053,3.053,0,0,0,.228.892A4.679,4.679,0,0,0,16.555,20.3" fill="#303134"/>
    <path id="Path_2180" data-name="Path 2180" d="M16.15,7.85a3.521,3.521,0,0,1-.1.882,4.357,4.357,0,0,1-1.9,2.644,6,6,0,0,1-.33-.8c-.052-.177-.114-.353-.166-.519A1.057,1.057,0,0,0,13.7,9.9a2.18,2.18,0,0,0,.093-.633c.01-.352.031-.7.031-1.058a.777.777,0,0,0-.384-.736,2.09,2.09,0,0,0-.622-.218,3.917,3.917,0,0,0-1.391-.011.954.954,0,0,0-.166.021,1.371,1.371,0,0,0-.622.27,1.11,1.11,0,0,0-.4.757,6.364,6.364,0,0,0-.052,1.256,2.186,2.186,0,0,0,.9,1.545.509.509,0,0,0,.093.063,2.051,2.051,0,0,0,.426.269.8.8,0,0,0,.809-.031A5.649,5.649,0,0,0,13,10.983l.3.8h-.011A3.809,3.809,0,0,1,12,12a4.022,4.022,0,0,1-1.722-.384A4.146,4.146,0,1,1,16.15,7.85" fill="#303134"/>
  </g>
</svg>
