<svg id="Group_6799" data-name="Group 6799" xmlns="http://www.w3.org/2000/svg" xmlns:xlink="http://www.w3.org/1999/xlink" width="24" height="24" viewBox="0 0 24 24">
  <defs>
    <clipPath id="clip-path">
      <rect id="Rectangle_3114" data-name="Rectangle 3114" width="24" height="24" fill="none"/>
    </clipPath>
  </defs>
  <g id="Group_6798" data-name="Group 6798" clip-path="url(#clip-path)">
    <path id="Path_2173" data-name="Path 2173" d="M21.607,12.4c-.191-.458-.389-.933-.551-1.406a1.862,1.862,0,0,0-.742-1.007,5.363,5.363,0,0,0-1.916-.77.546.546,0,0,1-.505-.5,1.5,1.5,0,0,0-.042-.163.855.855,0,0,1-.037-.147c-.008-.072-.015-.144-.02-.216a1.207,1.207,0,0,0,.283.135,13.939,13.939,0,0,0,1.646.437,2.859,2.859,0,0,0,1.653-.137.786.786,0,0,0,.454-1,.8.8,0,0,0-.969-.511l-.1.026a1.014,1.014,0,0,1-.214.045A3.17,3.17,0,0,1,17.9,6.18a1.486,1.486,0,0,1,.87-.4,3.986,3.986,0,0,0,2.16-.777,2.335,2.335,0,0,0,.89-1.157A.8.8,0,0,0,21.363,2.8a.829.829,0,0,0-1.043.442,1.587,1.587,0,0,1-.406.5,2.8,2.8,0,0,1-1.32.457,3.726,3.726,0,0,0-1.071.308,3.277,3.277,0,0,0-.9.643,1.038,1.038,0,0,1-.889.35,3.769,3.769,0,0,0-.812.054l-.141.02-.258-1.578c-.082-.5-.163-1.009-.25-1.512a1.246,1.246,0,1,0-2.459.4c.053.333.109.663.165,1,.087.518.174,1.036.25,1.556l.089.6c.113.74.229,1.505.277,2.257a10.879,10.879,0,0,1-.754,4.5.25.25,0,0,1-.242.2c-.7.129-1.433.279-2.312.469a2.4,2.4,0,0,0-1.46.9,8.139,8.139,0,0,1-.589.663c-.052.055-.1.109-.155.165l-.01-.007a2.61,2.61,0,0,0-.365-.221c-.159-.074-.187-.109-.128-.324a5.812,5.812,0,0,0-.412-4.556A.83.83,0,0,0,5.108,9.63a.811.811,0,0,0-.417,1.088c.061.157.124.313.194.467a2.856,2.856,0,0,1,.367,1.522c-.041.359-.087.718-.134,1.079l-.032.243-.153-.062c-.3-.12-.573-.231-.855-.329A2.152,2.152,0,0,0,2.72,13.56a.8.8,0,0,0,.352,1.569,1.334,1.334,0,0,1,.454.027,3.518,3.518,0,0,1,.7.263c.457.239.91.487,1.375.743l.307.168A7.8,7.8,0,0,1,4.2,17.592a3.7,3.7,0,0,1-.873.278.818.818,0,0,0-.416,1.447.753.753,0,0,0,.6.14,5.389,5.389,0,0,0,1.357-.4,9.465,9.465,0,0,0,2.354-1.743l.172-.161c.029.184.058.359.105.557a.149.149,0,0,1-.047.034l-.083.048a3.6,3.6,0,0,0-.769.538,3.256,3.256,0,0,0-.628.894.7.7,0,0,0-.02.559.82.82,0,0,0,.463.461.84.84,0,0,0,.568.02.68.68,0,0,0,.433-.388,1.37,1.37,0,0,1,.637-.632.229.229,0,0,1,.24-.015.181.181,0,0,1,.071.184A8.821,8.821,0,0,1,8.1,20.687a.831.831,0,0,0,.477,1.078.79.79,0,0,0,.628-.037.827.827,0,0,0,.407-.507,9.577,9.577,0,0,0,.351-1.435,1.766,1.766,0,0,0-.524-1.69.814.814,0,0,1-.267-.368c-.13-.643-.214-1.28-.279-1.817a.806.806,0,0,1,.475-.791c.52-.146,1.046-.272,1.58-.4l.4-.1c-.02.152-.042.3-.063.455-.048.338-.1.676-.13,1.016a13.531,13.531,0,0,0,.715,5.645,1.219,1.219,0,0,0,1.169.831h.015a1.248,1.248,0,0,0,1.167-.844,1.569,1.569,0,0,0-.07-1.05,11.361,11.361,0,0,1,.165-7.447,13.205,13.205,0,0,0,.756-5.46l-.042-.6a3.649,3.649,0,0,1,1.218-.051,4.43,4.43,0,0,0,.178,2.3,11.962,11.962,0,0,1,.453,1.556,5.533,5.533,0,0,1,.147,2.148.775.775,0,0,0,.552.844.766.766,0,0,0,.932-.368,1.451,1.451,0,0,0,.164-.64c0-.5-.037-.994-.071-1.411-.017-.2-.048-.406-.083-.633l.009,0c.314.14.6.266.877.4a.392.392,0,0,1,.1.164c.111.269.219.539.327.81.161.4.321.8.492,1.2a.933.933,0,0,0,.417.429.742.742,0,0,0,.9-.161.81.81,0,0,0,.143-.936Z" fill="#303134"/>
  </g>
</svg>
