<svg id="Group_6801" data-name="Group 6801" xmlns="http://www.w3.org/2000/svg" xmlns:xlink="http://www.w3.org/1999/xlink" width="24" height="24" viewBox="0 0 24 24">
  <defs>
    <clipPath id="clip-path">
      <rect id="Rectangle_3115" data-name="Rectangle 3115" width="24" height="24" fill="none"/>
    </clipPath>
  </defs>
  <g id="Group_6800" data-name="Group 6800" clip-path="url(#clip-path)">
    <path id="Path_2175" data-name="Path 2175" d="M21,10.771a9.573,9.573,0,0,1-9.56,9.56,4.41,4.41,0,0,1,0-8.82.738.738,0,0,0,.74-.74,4.475,4.475,0,0,1,.41-1.86,8.713,8.713,0,0,1-2.73-6.47,1.1,1.1,0,0,1,2.19,0,6.539,6.539,0,0,0,1.93,4.79,4.323,4.323,0,0,1,3.57-.76l-8.59,8.58-.7.71.7.71a4.915,4.915,0,0,0,3.44,1.4,3.524,3.524,0,0,0,2.49-.9l2.01-2.01.71-.71-.71-.7L16.35,13l4.19-4.18a4.276,4.276,0,0,1,.46,1.95" fill="#303134"/>
    <path id="Path_2176" data-name="Path 2176" d="M5,12.7a3.056,3.056,0,0,0-2,2.884v5.968a1.092,1.092,0,1,0,2.184,0V15.589a.88.88,0,0,1,.585-.838A1.092,1.092,0,0,0,5,12.7" fill="#303134"/>
    <path id="Path_2177" data-name="Path 2177" d="M14.94,13a6.111,6.111,0,0,0,1.25,1.25l-2.01,2.01a2.539,2.539,0,0,1-1.78.61,3.9,3.9,0,0,1-2.73-1.11l8.92-8.92,1.11-1.1,1.25,1.25S15.63,11.686,14.94,13Z" fill="#303134"/>
  </g>
</svg>
