<svg id="Group_6829" data-name="Group 6829" xmlns="http://www.w3.org/2000/svg" xmlns:xlink="http://www.w3.org/1999/xlink" width="24" height="24" viewBox="0 0 24 24">
  <defs>
    <clipPath id="clip-path">
      <rect id="Rectangle_3129" data-name="Rectangle 3129" width="24" height="24" fill="none"/>
    </clipPath>
  </defs>
  <g id="Group_6828" data-name="Group 6828" clip-path="url(#clip-path)">
    <path id="Path_2238" data-name="Path 2238" d="M15.26,12.05,14.15,9.84l-3.11,6.21a1,1,0,0,1-1.78,0L7.53,12.6H3.49c1.41,2.1,3.78,4.28,6.77,7l.29.26L12,21.18l1.45-1.31.3-.27c2.98-2.72,5.35-4.89,6.76-7H16.15a.977.977,0,0,1-.89-.55" fill="#303134"/>
    <path id="Path_2239" data-name="Path 2239" d="M19.35,3.6a5.485,5.485,0,0,0-2.85-.78,5.822,5.822,0,0,0-2.89.78A5.655,5.655,0,0,0,12,4.91,5.655,5.655,0,0,0,10.39,3.6,5.822,5.822,0,0,0,7.5,2.82a5.485,5.485,0,0,0-2.85.78,5.357,5.357,0,0,0-2.5,3.44A5.4,5.4,0,0,0,2,8.32a5.961,5.961,0,0,0,.15,1.33,5.691,5.691,0,0,0,.28.95H8.15a.977.977,0,0,1,.89.55l1.11,2.21,3.11-6.21a1.04,1.04,0,0,1,1.79,0l1.72,3.45h4.8A6.4,6.4,0,0,0,22,8.32,5.435,5.435,0,0,0,19.35,3.6" fill="#303134"/>
  </g>
</svg>
