<svg id="Group_6813" data-name="Group 6813" xmlns="http://www.w3.org/2000/svg" xmlns:xlink="http://www.w3.org/1999/xlink" width="24" height="24" viewBox="0 0 24 24">
  <defs>
    <clipPath id="clip-path">
      <rect id="Rectangle_3121" data-name="Rectangle 3121" width="24" height="24" fill="none"/>
    </clipPath>
  </defs>
  <g id="Group_6812" data-name="Group 6812" clip-path="url(#clip-path)">
    <path id="Path_2213" data-name="Path 2213" d="M13.588,12.354a.326.326,0,0,0-.242-.362l-2.3-.581a.326.326,0,0,1-.243-.362l.115-.8L6.01,13.535a1.637,1.637,0,0,1-1.894-.046c-.921-.681-2.37-1.2-3.035,1.456a2.358,2.358,0,0,0,.311,1.938,2.65,2.65,0,0,0,1.536,1.048,2.655,2.655,0,0,0,.808,2.29,2.7,2.7,0,0,0,3.118.386A1.57,1.57,0,0,0,7.6,18.519a1.649,1.649,0,0,1,.629-1.877l5.132-3.44a.326.326,0,0,0,.141-.224Zm9.107-4.977a2.625,2.625,0,0,0-1.458-1.15A2.644,2.644,0,0,0,20.59,3.9a2.684,2.684,0,0,0-3.061-.594,1.556,1.556,0,0,0-.887,2.008,1.651,1.651,0,0,1-.756,1.827l-4.871,3.033c-.076.046-.2.132-.224.219l-.14.658a.324.324,0,0,0,.217.377l2.254.735a.326.326,0,0,1,.217.378l-.035.695,4.583-2.845a1.64,1.64,0,0,1,1.885.173c.866.73,2.259,1.325,3.1-1.248a2.34,2.34,0,0,0-.174-1.939" fill="#303134"/>
  </g>
</svg>
