<svg id="Group_6869" data-name="Group 6869" xmlns="http://www.w3.org/2000/svg" xmlns:xlink="http://www.w3.org/1999/xlink" width="24" height="24" viewBox="0 0 24 24">
  <defs>
    <clipPath id="clip-path">
      <rect id="Rectangle_3149" data-name="Rectangle 3149" width="24" height="24" fill="none"/>
    </clipPath>
  </defs>
  <g id="Group_6868" data-name="Group 6868" clip-path="url(#clip-path)">
    <path id="Path_2328" data-name="Path 2328" d="M20.866,5.759a4.846,4.846,0,0,0-7.811-2.967,1.665,1.665,0,0,1-2.111,0A4.846,4.846,0,0,0,3.938,9.347a4.915,4.915,0,0,1,.7,4.3l-.045.144c-1.188,3.94-.267,7.7,2.058,8.4l.022.007a1.808,1.808,0,0,0,2.321-1.733V18.45a2.945,2.945,0,0,1,2.581-2.971,2.863,2.863,0,0,1,3.144,2.848v2.035A1.867,1.867,0,0,0,16.2,22.211a2.644,2.644,0,0,0,1.267-.055c2.26-.682,3.134-4.41,1.953-8.328l-.057-.184a4.639,4.639,0,0,1,.613-4.178,4.837,4.837,0,0,0,.892-3.707" fill="#303134"/>
    <path id="Path_2329" data-name="Path 2329" d="M12.715,17.182H11A.859.859,0,1,0,11,18.9h1.717a.859.859,0,1,0,0-1.717" fill="#303134"/>
  </g>
</svg>
