<svg id="Group_6815" data-name="Group 6815" xmlns="http://www.w3.org/2000/svg" xmlns:xlink="http://www.w3.org/1999/xlink" width="24" height="24" viewBox="0 0 24 24">
  <defs>
    <clipPath id="clip-path">
      <rect id="Rectangle_3122" data-name="Rectangle 3122" width="24" height="24" fill="none"/>
    </clipPath>
  </defs>
  <g id="Group_6814" data-name="Group 6814" clip-path="url(#clip-path)">
    <path id="Path_2214" data-name="Path 2214" d="M22.5,9.3V10.6H17.976c-.391,0-.784-.017-1.174,0-.974.052-1.277.434-1,1.358.246.827.605,1.62.857,2.446a13.368,13.368,0,0,1,.659,2.623,4.511,4.511,0,0,1-3.478,5.009,6.512,6.512,0,0,1-4.7-.357,4.4,4.4,0,0,1-2.5-5.481,29.514,29.514,0,0,1,1.324-3.121A10.969,10.969,0,0,0,8.471,11.9c.244-.823-.11-1.281-.96-1.284-1.772-.006-3.544,0-5.317,0H1.5V9.3c.226,0,.444,0,.662,0q2.628.009,5.255.017a2.187,2.187,0,0,1,2.217,3.2c-.4,1.035-.976,2-1.38,3.033a6.276,6.276,0,0,0-.51,2.139A2.989,2.989,0,0,0,9.7,20.515a5.253,5.253,0,0,0,4.264.117A3.266,3.266,0,0,0,16,16.825c-.262-1.157-.735-2.266-1.1-3.4A10.811,10.811,0,0,1,14.44,11.7a1.928,1.928,0,0,1,1.707-2.3,13.875,13.875,0,0,1,2.031-.1c1.419-.013,2.838,0,4.322,0" fill="#303134"/>
    <path id="Path_2215" data-name="Path 2215" d="M16.989,1.794c-.126.2-.246.4-.379.587a18.809,18.809,0,0,0-3.119,6.133,17.272,17.272,0,0,0,.165,7.66c.045.221.1.442.144.664a1.781,1.781,0,0,1-.676,1.977,1.871,1.871,0,0,1-2.1.13,1.843,1.843,0,0,1-.926-1.883,2.511,2.511,0,0,1,.05-.367c.53-2.475,1.067-4.947,1.592-7.422a13.083,13.083,0,0,1,4.8-7.43,1.88,1.88,0,0,1,.31-.168l.135.119" fill="#303134"/>
    <path id="Path_2216" data-name="Path 2216" d="M20.655,13.3a.822.822,0,0,1-.829-.819.779.779,0,0,1,.767-.808.8.8,0,0,1,.855.778.819.819,0,0,1-.793.849" fill="#303134"/>
    <path id="Path_2217" data-name="Path 2217" d="M5.42,15.529a.809.809,0,0,1-.836.8.776.776,0,0,1-.779-.844.755.755,0,0,1,.793-.769.8.8,0,0,1,.822.814" fill="#303134"/>
    <path id="Path_2218" data-name="Path 2218" d="M19.819,17.844a.83.83,0,0,1,.825.823.807.807,0,0,1-.833.809.765.765,0,0,1-.783-.787.8.8,0,0,1,.791-.845" fill="#303134"/>
    <path id="Path_2219" data-name="Path 2219" d="M3.773,13.3a.844.844,0,0,1-.8-.854.812.812,0,0,1,.866-.773.761.761,0,0,1,.755.811.813.813,0,0,1-.823.816" fill="#303134"/>
    <path id="Path_2220" data-name="Path 2220" d="M19.817,14.974a.81.81,0,0,1-.8.834.821.821,0,0,1-.811-.833.807.807,0,0,1,1.614,0" fill="#303134"/>
    <path id="Path_2221" data-name="Path 2221" d="M3.169,17.271a.789.789,0,0,1,.829.8.8.8,0,0,1-.812.821.787.787,0,0,1-.8-.774.8.8,0,0,1,.786-.846" fill="#303134"/>
  </g>
</svg>
