<svg id="Group_6817" data-name="Group 6817" xmlns="http://www.w3.org/2000/svg" xmlns:xlink="http://www.w3.org/1999/xlink" width="24" height="24" viewBox="0 0 24 24">
  <defs>
    <clipPath id="clip-path">
      <rect id="Rectangle_3123" data-name="Rectangle 3123" width="24" height="24" fill="none"/>
    </clipPath>
  </defs>
  <g id="Group_6816" data-name="Group 6816" clip-path="url(#clip-path)">
    <path id="Path_2222" data-name="Path 2222" d="M10.505,14.443c.229-.267.368-.4.479-.561.783-1.112,1.246-1.117,2.025-.026.119.167.273.31.468.528a2.327,2.327,0,0,0,.138-.355A18.6,18.6,0,0,1,17.129,6.14a1.213,1.213,0,0,1,.435-.434,1.389,1.389,0,0,1,.87-.177c.188.068.305.459.367.727.222.948.332,1.927.619,2.853a16.823,16.823,0,0,1,.722,7.348,7.04,7.04,0,0,1-.223.931c-.853,3.021-3.813,3.731-6.188,2.134-1.505-1.011-1.976-1.015-3.5.03a4.213,4.213,0,0,1-2.653.794A3.462,3.462,0,0,1,4.5,18.391a8.016,8.016,0,0,1-.779-3.775A18.909,18.909,0,0,1,4.7,8.743a17.872,17.872,0,0,0,.446-2.307c.064-.36-.014-.8.447-.947a.926.926,0,0,1,1.085.416,23.589,23.589,0,0,1,1.769,2.74c.668,1.322,1.219,2.707,1.76,4.088a9.414,9.414,0,0,1,.3,1.71" fill="#303134"/>
    <path id="Path_2223" data-name="Path 2223" d="M7.938,6.393c-.462-.5-.868-.912-1.239-1.355a1.053,1.053,0,0,1-.177-.521c-.06-.428-.063-.865-.138-1.29A1.8,1.8,0,0,1,7.3,1.375a1.841,1.841,0,0,1,2.027-.134c.368.188.732.386,1.092.589a3.124,3.124,0,0,0,3.129.024c.368-.189.723-.4,1.092-.589a1.9,1.9,0,0,1,2.08.116,2.187,2.187,0,0,1,.926,1.976,2.789,2.789,0,0,1-1.5,2.359c.084-.806.148-1.578.249-2.345a.857.857,0,0,0-.353-.982.915.915,0,0,0-1.057.067c-.126.082-.261.149-.39.227A4.694,4.694,0,0,1,9.373,2.66a4.76,4.76,0,0,0-.59-.332.8.8,0,0,0-1.169.808c.085,1.067.21,2.13.324,3.257" fill="#303134"/>
    <path id="Path_2224" data-name="Path 2224" d="M8.942,7.675h6.115c-.16.961-.4,1.178-1.3,1.179q-1.661,0-3.323,0c-1.132,0-1.132,0-1.492-1.179" fill="#303134"/>
    <path id="Path_2225" data-name="Path 2225" d="M12.694,22.9l-1.185.1c-.071-.658-.136-1.26-.2-1.883l1.176-.329c.071.708.139,1.38.213,2.107" fill="#303134"/>
    <path id="Path_2226" data-name="Path 2226" d="M12.511,23l-1.2-.094c.067-.679.128-1.3.194-1.975l1.181.227c-.059.608-.115,1.195-.177,1.842" fill="#303134"/>
  </g>
</svg>
