<svg id="Group_6819" data-name="Group 6819" xmlns="http://www.w3.org/2000/svg" xmlns:xlink="http://www.w3.org/1999/xlink" width="24" height="24" viewBox="0 0 24 24">
  <defs>
    <clipPath id="clip-path">
      <rect id="Rectangle_3124" data-name="Rectangle 3124" width="24" height="24" fill="none"/>
    </clipPath>
  </defs>
  <g id="Group_6818" data-name="Group 6818" clip-path="url(#clip-path)">
    <path id="Path_2228" data-name="Path 2228" d="M16.845,16.063a5.474,5.474,0,0,1-.19.8c-.73,2.6-3.28,3.21-5.32,1.83-1.29-.86-1.7-.87-3.01.03a3.57,3.57,0,0,1-2.28.68,2.954,2.954,0,0,1-2.64-1.68,6.724,6.724,0,0,1-.67-3.24,16.05,16.05,0,0,1,.83-5.05,14.72,14.72,0,0,0,.38-1.98c.06-.32-.01-.69.39-.82a.8.8,0,0,1,.93.36,18.952,18.952,0,0,1,1.52,2.36c.51,1,.95,2.06,1.37,3.12l-.4.4L6.725,13.9l-.7.71.7.7a5.709,5.709,0,0,0,4.05,1.66,4.1,4.1,0,0,0,2.9-1.04l3.19-3.19a13.185,13.185,0,0,1-.02,3.32" fill="#303134"/>
    <path id="Path_2229" data-name="Path 2229" d="M6.527,7.411c-.4-.429-.746-.784-1.065-1.165A.9.9,0,0,1,5.31,5.8c-.051-.369-.055-.744-.119-1.11A1.547,1.547,0,0,1,5.978,3.1a1.584,1.584,0,0,1,1.743-.115c.317.162.629.332.939.506a2.688,2.688,0,0,0,2.69.021c.316-.162.621-.346.938-.506a1.632,1.632,0,0,1,1.788.1,1.882,1.882,0,0,1,.8,1.7,2.4,2.4,0,0,1-1.289,2.028c.072-.693.127-1.357.214-2.016a.735.735,0,0,0-.3-.844.787.787,0,0,0-.908.057c-.108.071-.225.129-.335.2a4.035,4.035,0,0,1-4.49-.02,4.3,4.3,0,0,0-.507-.286.685.685,0,0,0-1.005.7c.073.917.18,1.831.278,2.8" fill="#303134"/>
    <path id="Path_2230" data-name="Path 2230" d="M12.115,8.513,11.1,9.523H8.485c-.97,0-.97,0-1.28-1.01Z" fill="#303134"/>
    <path id="Path_2231" data-name="Path 2231" d="M7.978,21.6l-1.019.09-.175-1.619L7.8,19.785c.061.61.12,1.187.183,1.812" fill="#303134"/>
    <path id="Path_2232" data-name="Path 2232" d="M13.1,21.686l-1.03-.08c.058-.584.11-1.121.167-1.7l1.015.194c-.05.523-.1,1.028-.152,1.584" fill="#303134"/>
    <path id="Path_2233" data-name="Path 2233" d="M13.345,11.763l1.54,1.55-1.21,1.2-.71.72a3.163,3.163,0,0,1-2.19.74,4.772,4.772,0,0,1-3.34-1.36l1.03-1.03,4.69-4.7,6.57-6.57,1.54,1.54Z" fill="#303134"/>
  </g>
</svg>
