<svg id="Group_6821" data-name="Group 6821" xmlns="http://www.w3.org/2000/svg" xmlns:xlink="http://www.w3.org/1999/xlink" width="24" height="24" viewBox="0 0 24 24">
  <defs>
    <clipPath id="clip-path">
      <rect id="Rectangle_3125" data-name="Rectangle 3125" width="24" height="24" fill="none"/>
    </clipPath>
  </defs>
  <g id="Group_6820" data-name="Group 6820" clip-path="url(#clip-path)">
    <path id="Path_2234" data-name="Path 2234" d="M14.3,17.192c-.1.149-.282.305-.275.45.011.276.05.66.229.789a.928.928,0,0,0,.852.057c2.587-1.708,3.674-3.915,2.835-6.86A8.112,8.112,0,0,0,17.318,10a6.764,6.764,0,0,1-.211-5.936c.227-.586.529-1.141.815-1.752l.77.341c-.07.133-.137.239-.184.354a14.719,14.719,0,0,0-.877,2.217,3.99,3.99,0,0,0,1.672,4.3,5.879,5.879,0,0,1,2.35,3.655,6.205,6.205,0,0,1-.325,3.587c-1.067,2.56-2.686,4.61-5.463,5.452a8.063,8.063,0,0,1-5.471-.472,13.509,13.509,0,0,1-4.578-3.065,1.99,1.99,0,0,0-.672-.288,2.091,2.091,0,0,0-.258.69,4.238,4.238,0,0,0,1.035,2.648c.175.218.37.421.622.707-.955,0-1.832,0-2.708-.006a.387.387,0,0,1-.244-.145,5.351,5.351,0,0,1-.857-5.8A3.668,3.668,0,0,1,8,14.9a6.847,6.847,0,0,0,1.164.562,2.333,2.333,0,0,0,2.344-.64,6.493,6.493,0,0,0,1.6-2.451,13.765,13.765,0,0,0,.987-4.62A12.23,12.23,0,0,1,16.065,1.5l.476.18c-.265.564-.54,1.09-.765,1.636a8.207,8.207,0,0,0,.171,7.284,8.474,8.474,0,0,1,.655,1.828,3.746,3.746,0,0,1-1.11,3.833,14.071,14.071,0,0,1-1.207.945c.007-.066.045-.151.017-.192q-.525-.778-1.075-1.541c-.024-.033-.141,0-.214.005.005.1-.026.233.023.307a7.108,7.108,0,0,0,.624.842,6.771,6.771,0,0,0,.64.564m1.091,1.265c-.016.112-.086.257-.04.323.309.45.638.886.974,1.315.043.054.171.059.258.054.026,0,.085-.133.066-.159-.367-.506-.743-1-1.119-1.5-.007-.01-.031-.009-.139-.03m-1.215.053c-.235,0-.383-.046-.468.007-.391.25-.77.522-1.14.8-.07.053-.079.188-.117.285.116,0,.261.046.343-.008.378-.239.741-.5,1.1-.767a2.723,2.723,0,0,0,.278-.319m-1.37-1.244c-.167.111-.273.179-.38.249a3.557,3.557,0,0,0,.584.244c.089.021.209-.08.315-.126-.164-.117-.329-.233-.519-.367m1.911,2.159-.252-.027c-.046.211-.1.421-.128.635-.005.047.091.128.156.155.039.016.153-.037.158-.07.033-.229.046-.461.066-.693" fill="#303134"/>
  </g>
</svg>
