<svg id="Group_6807" data-name="Group 6807" xmlns="http://www.w3.org/2000/svg" xmlns:xlink="http://www.w3.org/1999/xlink" width="24" height="24" viewBox="0 0 24 24">
  <defs>
    <clipPath id="clip-path">
      <rect id="Rectangle_3118" data-name="Rectangle 3118" width="24" height="24" fill="none"/>
    </clipPath>
  </defs>
  <g id="Group_6806" data-name="Group 6806" clip-path="url(#clip-path)">
    <path id="Path_2184" data-name="Path 2184" d="M16.589,6.364a4.387,4.387,0,0,0-2.614.863,6.526,6.526,0,0,1-1.93-4.784,1.092,1.092,0,1,0-2.184,0,8.714,8.714,0,0,0,2.733,6.471,4.388,4.388,0,0,0-.416,1.86.736.736,0,0,1-.735.736,4.41,4.41,0,1,0,0,8.821A9.567,9.567,0,0,0,21,10.774a4.41,4.41,0,0,0-4.411-4.41m.093,9.785a7.6,7.6,0,0,1-.924.768.683.683,0,1,1-.787-1.116,6.075,6.075,0,0,0,.758-.63.683.683,0,1,1,.953.978m1.829-2.838a.684.684,0,0,1-.642.452.676.676,0,0,1-.232-.041.683.683,0,0,1-.411-.873,6.108,6.108,0,0,0,.361-2.074,1,1,0,0,0-1-1,.683.683,0,1,1,0-1.365,2.366,2.366,0,0,1,2.363,2.363,7.461,7.461,0,0,1-.441,2.536" fill="#303134"/>
    <path id="Path_2185" data-name="Path 2185" d="M6.409,13.344A1.091,1.091,0,0,0,5,12.7a3.056,3.056,0,0,0-2,2.884v5.968a1.092,1.092,0,1,0,2.184,0V15.588a.88.88,0,0,1,.585-.838,1.093,1.093,0,0,0,.64-1.406" fill="#303134"/>
  </g>
</svg>
