<svg id="Group_6831" data-name="Group 6831" xmlns="http://www.w3.org/2000/svg" xmlns:xlink="http://www.w3.org/1999/xlink" width="24" height="24" viewBox="0 0 24 24">
  <defs>
    <clipPath id="clip-path">
      <rect id="Rectangle_3130" data-name="Rectangle 3130" width="24" height="24" fill="none"/>
    </clipPath>
  </defs>
  <g id="Group_6830" data-name="Group 6830" clip-path="url(#clip-path)">
    <path id="Path_2240" data-name="Path 2240" d="M7,19.5a2.006,2.006,0,0,0-2,2H19a2.006,2.006,0,0,0-2-2H13v-2h3a2.006,2.006,0,0,0,2-2H10A2.991,2.991,0,0,1,8.46,9.94,2.471,2.471,0,0,1,8,8.5a2.579,2.579,0,0,1,.09-.62A5,5,0,0,0,10,17.5v2Z" fill="#303134"/>
    <path id="Path_2241" data-name="Path 2241" d="M10.56,6.01a2.488,2.488,0,0,1,1.59,4.36l.59,1.62.94-.34.34.94,1.88-.68-.34-.94.94-.34L13.76,3.1l-.94.34-.34-.94-1.88.68.34.94L10,4.47Z" fill="#303134"/>
    <path id="Path_2242" data-name="Path 2242" d="M10.5,7A1.5,1.5,0,1,1,9,8.5,1.5,1.5,0,0,1,10.5,7" fill="#303134"/>
  </g>
</svg>
