<svg id="Group_6833" data-name="Group 6833" xmlns="http://www.w3.org/2000/svg" xmlns:xlink="http://www.w3.org/1999/xlink" width="24" height="24" viewBox="0 0 24 24">
  <defs>
    <clipPath id="clip-path">
      <rect id="Rectangle_3131" data-name="Rectangle 3131" width="24" height="24" fill="none"/>
    </clipPath>
  </defs>
  <g id="Group_6832" data-name="Group 6832" clip-path="url(#clip-path)">
    <path id="Path_2243" data-name="Path 2243" d="M22.507,8.964v1.31H17.98c-.391,0-.784-.017-1.174,0-.975.052-1.278.434-1,1.358.247.828.606,1.622.858,2.448a13.334,13.334,0,0,1,.659,2.625,4.512,4.512,0,0,1-3.479,5.012,6.52,6.52,0,0,1-4.7-.357,4.4,4.4,0,0,1-2.5-5.485,29.635,29.635,0,0,1,1.324-3.123,10.782,10.782,0,0,0,.508-1.191c.245-.824-.11-1.283-.96-1.285-1.773-.006-3.547,0-5.32,0H1.494V8.963c.226,0,.444,0,.662,0q2.63.009,5.258.017a2.188,2.188,0,0,1,2.219,3.2c-.4,1.036-.977,2-1.382,3.035a6.285,6.285,0,0,0-.509,2.14A2.989,2.989,0,0,0,9.7,20.19a5.257,5.257,0,0,0,4.267.117A3.268,3.268,0,0,0,16,16.5c-.262-1.158-.735-2.268-1.095-3.4a10.71,10.71,0,0,1-.462-1.724A1.93,1.93,0,0,1,16.15,9.064a13.888,13.888,0,0,1,2.032-.1c1.42-.013,2.84,0,4.325,0" fill="#303134"/>
    <path id="Path_2244" data-name="Path 2244" d="M13.8,16.513a1.788,1.788,0,0,1-.678,1.979,1.873,1.873,0,0,1-2.1.124,1.845,1.845,0,0,1-.924-1.884,3.05,3.05,0,0,1,.047-.363q.76-3.513,1.507-7.02l1.507,1.082a20.458,20.458,0,0,0,.5,5.418c.048.219.1.438.144.664" fill="#303134"/>
    <path id="Path_2245" data-name="Path 2245" d="M19.262,2.144c-.169.158-.328.333-.5.49a18.832,18.832,0,0,0-4.394,5.3,12.034,12.034,0,0,0-.789,2L12.51,8.243a13.083,13.083,0,0,1,6.307-6.15A1.681,1.681,0,0,1,19.154,2c.039.044.07.093.108.144" fill="#303134"/>
  </g>
</svg>
