<svg id="Group_6835" data-name="Group 6835" xmlns="http://www.w3.org/2000/svg" xmlns:xlink="http://www.w3.org/1999/xlink" width="13.557" height="23" viewBox="0 0 13.557 23">
  <defs>
    <clipPath id="clip-path">
      <rect id="Rectangle_3132" data-name="Rectangle 3132" width="13.557" height="23" fill="none"/>
    </clipPath>
  </defs>
  <g id="Group_6834" data-name="Group 6834" clip-path="url(#clip-path)">
    <path id="Path_2246" data-name="Path 2246" d="M1.64,11.837q0-3.649,0-7.3A2.277,2.277,0,0,1,3.7,2.018a1.145,1.145,0,0,0,.569-.311,3.205,3.205,0,0,1,4.987-.031,1.249,1.249,0,0,0,.622.345A2.268,2.268,0,0,1,11.91,4.5q0,7.33-.005,14.662c0,.444.031.757.533.97a1.112,1.112,0,0,1,.581,1.358,1.191,1.191,0,0,1-1.186.987c-.553.04-1.111.014-1.666.014q-4.066,0-8.133,0c-.91,0-1.427-.384-1.518-1.1a1.114,1.114,0,0,1,.623-1.277c.466-.2.509-.493.507-.914-.012-2.455-.006-4.91-.006-7.365M3.588,2.553A1.741,1.741,0,0,0,2.081,4.539q-.014,7.4,0,14.8a4.2,4.2,0,0,0,.063.528h9.287c.017-.2.045-.363.045-.522q0-7.4-.005-14.8a2.847,2.847,0,0,0-.113-.822,1.5,1.5,0,0,0-1.394-1.13c0,1.059.014,2.117-.01,3.175,0,.263-.047.656-.216.76-.663.411-.725,1.093-.89,1.722a.9.9,0,0,1-1.025.8c-.693-.031-1.39-.031-2.084,0a.9.9,0,0,1-1.031-.792c-.161-.633-.227-1.311-.887-1.723-.169-.106-.216-.5-.222-.76-.023-1.058-.009-2.117-.009-3.222m3.185,3.9c.671,0,1.342-.015,2.012,0,.456.014.722-.173.724-.629a21.784,21.784,0,0,0-.05-2.492,2.705,2.705,0,0,0-5.367,0,21.558,21.558,0,0,0-.05,2.492c0,.455.262.647.721.633.67-.02,1.341,0,2.01,0m.072,13.932c-1.6,0-3.195,0-4.793,0-.57,0-1.032.141-1.1.788-.057.517.384.852,1.1.853q4.725.006,9.448,0c.719,0,1.16-.333,1.1-.85-.069-.648-.531-.794-1.1-.791-1.55.008-3.1,0-4.655,0M8.658,6.972H4.9c.2,1.5.276,1.608,1.058,1.62,2.417.035,2.417.035,2.7-1.62" fill="#303134"/>
    <path id="Path_2247" data-name="Path 2247" d="M11.107,22.75c-.159,0-.317,0-.473,0l-.468,0H8.687q-3.326,0-6.654,0c-1.39,0-1.7-.824-1.766-1.314a1.35,1.35,0,0,1,.774-1.54c.31-.131.357-.271.354-.683-.009-1.818-.008-3.638-.007-5.457v-4.1q0-2.553,0-5.107A2.523,2.523,0,0,1,3.649,1.772a.872.872,0,0,0,.437-.236A3.742,3.742,0,0,1,6.791.25h0A3.6,3.6,0,0,1,9.44,1.506a1,1,0,0,0,.491.27A2.507,2.507,0,0,1,12.159,4.5q.006,7.33-.005,14.663c0,.427.03.59.381.74a1.354,1.354,0,0,1,.727,1.639,1.431,1.431,0,0,1-1.411,1.185c-.248.017-.5.022-.744.022M2.035,20.631c-.646,0-.8.217-.839.566a.4.4,0,0,0,.1.332,1.023,1.023,0,0,0,.755.242q4.723.009,9.449,0a1.033,1.033,0,0,0,.758-.241.405.405,0,0,0,.1-.332c-.037-.349-.191-.567-.836-.567H11.5c-1.121.006-2.243,0-3.364,0H5.514c-1.156,0-2.309,0-3.465,0Zm-.179-.972a.882.882,0,0,1-.329.521,2.29,2.29,0,0,1,.525-.049c1.154.007,2.307,0,3.461,0H8.139c1.121,0,2.241,0,3.36,0a2.279,2.279,0,0,1,.52.048.887.887,0,0,1-.319-.5l0,.027-.04.416H1.92l-.051-.377c0-.027-.009-.056-.013-.084m.5-.039H11.2a2.4,2.4,0,0,0,.02-.271q0-7.4,0-14.8a2.668,2.668,0,0,0-.1-.75,1.3,1.3,0,0,0-.9-.921v.573c0,.776.005,1.551-.012,2.326s-.256.919-.335.968a1.786,1.786,0,0,0-.709,1.286c-.023.1-.045.192-.07.286A1.157,1.157,0,0,1,7.81,9.3c-.7-.031-1.389-.031-2.062,0a1.142,1.142,0,0,1-1.285-.981L4.4,8.051a1.806,1.806,0,0,0-.714-1.3c-.213-.133-.327-.458-.338-.965-.018-.776-.015-1.552-.012-2.346V2.867c-.683.214-1,.752-1.006,1.672q-.012,7.118,0,14.234v.57a1.734,1.734,0,0,0,.028.277M7.745,8.8c.053,0,.108.006.157.006.386,0,.574-.157.691-.574a1,1,0,0,1-.848.568m-2.49-.084a.55.55,0,0,0,.167.066.786.786,0,0,1-.167-.066m-.066-1.49c.154,1.111.206,1.111.775,1.12,2.042.026,2.191.031,2.4-1.12Zm-.844-.566a1.91,1.91,0,0,1,.341.578c-.01-.073-.02-.149-.031-.229l-.039-.283H8.952L8.9,7.014c-.013.076-.025.15-.038.22A1.924,1.924,0,0,1,9.2,6.656a1.411,1.411,0,0,1-.426.051c-.465-.014-.929-.01-1.4-.008l-.609,0-.609,0c-.466,0-.93-.006-1.394.008a1.448,1.448,0,0,1-.425-.051M7.987,6.2c.269,0,.537,0,.8.011a.58.58,0,0,0,.378-.093.39.39,0,0,0,.088-.287l0-.5a16.275,16.275,0,0,0-.052-1.964,2.426,2.426,0,0,0-2.4-2.141H6.78A2.425,2.425,0,0,0,4.339,3.359a16.249,16.249,0,0,0-.054,1.95l.006.514a.4.4,0,0,0,.089.292.518.518,0,0,0,.375.092c.47-.014.941-.01,1.413-.008l.6,0,.606,0c.2,0,.4,0,.608,0M3.837,2.259l0,1.118c0-.023,0-.048.007-.072a2.866,2.866,0,0,1,.494-1.321,1.417,1.417,0,0,1-.585.279c-.054.01-.107.023-.159.036Zm5.356-.3a2.863,2.863,0,0,1,.515,1.351l.006.054,0-1.021h.251a1.656,1.656,0,0,1,.235.018,3.677,3.677,0,0,0-.369-.094,1.547,1.547,0,0,1-.636-.309" fill="#303134"/>
    <path id="Path_2248" data-name="Path 2248" d="M11.123,22.75c-.161,0-.322,0-.481,0s-.317,0-.476,0H8.54q-3.252,0-6.506,0c-1.391,0-1.7-.825-1.767-1.314a1.351,1.351,0,0,1,.775-1.54c.31-.131.356-.271.354-.683-.01-1.829-.008-3.659-.007-5.489V9.647q0-2.555,0-5.107A2.521,2.521,0,0,1,3.65,1.773a.885.885,0,0,0,.437-.237A3.742,3.742,0,0,1,6.792.25h0A3.6,3.6,0,0,1,9.441,1.506a1,1,0,0,0,.489.269A2.508,2.508,0,0,1,12.16,4.5q0,7.332-.006,14.663c0,.428.031.591.381.739a1.358,1.358,0,0,1,.728,1.64,1.433,1.433,0,0,1-1.411,1.186c-.243.017-.487.022-.729.022M2.035,20.631c-.646,0-.8.217-.838.565a.406.406,0,0,0,.1.333,1.025,1.025,0,0,0,.756.243q4.723,0,9.448,0a1.031,1.031,0,0,0,.758-.242.408.408,0,0,0,.1-.332c-.038-.349-.192-.567-.837-.567H11.5q-1.629.009-3.261,0H5.408q-1.68,0-3.358,0Zm-.178-.973a.884.884,0,0,1-.328.522,2.34,2.34,0,0,1,.524-.049q1.677.009,3.354,0H8.243q1.628,0,3.257,0a2.13,2.13,0,0,1,.52.048.889.889,0,0,1-.32-.5l0,.027-.039.416H1.922l-.051-.372c0-.029-.009-.059-.014-.09m.5-.038H11.2a2.4,2.4,0,0,0,.02-.272q0-7.4,0-14.8a2.637,2.637,0,0,0-.1-.75,1.3,1.3,0,0,0-.9-.92l0,.573c0,.776.005,1.551-.012,2.326s-.256.918-.335.967a1.784,1.784,0,0,0-.71,1.287c-.022.1-.045.192-.069.287A1.152,1.152,0,0,1,7.811,9.3c-.685-.031-1.378-.031-2.063,0a1.155,1.155,0,0,1-1.284-.98L4.4,8.05a1.8,1.8,0,0,0-.713-1.3c-.213-.133-.327-.458-.339-.966-.017-.775-.015-1.551-.012-2.345l0-.567a1.523,1.523,0,0,0-1.006,1.67q-.014,7.4,0,14.8a1.735,1.735,0,0,0,.028.278M7.75,8.8c.052,0,.106.005.155.005.385,0,.572-.157.689-.573A1,1,0,0,1,7.75,8.8M5.265,8.717a.561.561,0,0,0,.14.056.834.834,0,0,1-.14-.056M5.19,7.222c.153,1.111.2,1.111.775,1.12,2.044.025,2.191.032,2.4-1.12Zm-.844-.566a1.939,1.939,0,0,1,.341.577c-.011-.073-.021-.148-.032-.228l-.038-.283H8.954l-.05.292c-.012.075-.025.147-.038.217A1.95,1.95,0,0,1,9.2,6.656a1.436,1.436,0,0,1-.425.051C8.307,6.692,7.837,6.7,7.367,6.7l-.593,0-.594,0c-.469,0-.94-.006-1.41.009a1.549,1.549,0,0,1-.424-.051m3.61-.46c.279,0,.558,0,.837.011a.592.592,0,0,0,.378-.093.393.393,0,0,0,.088-.288l.005-.509a16.338,16.338,0,0,0-.052-1.955,2.425,2.425,0,0,0-2.4-2.14h-.03A2.423,2.423,0,0,0,4.34,3.359a16.044,16.044,0,0,0-.054,1.95l.005.514a.4.4,0,0,0,.09.291.588.588,0,0,0,.374.093c.475-.015.952-.011,1.429-.009l.59,0,.589,0,.593,0M3.837,2.259l0,1.118c0-.024.006-.048.008-.072a2.846,2.846,0,0,1,.493-1.32,1.421,1.421,0,0,1-.585.278c-.055.01-.108.023-.159.036ZM9.2,1.96a2.86,2.86,0,0,1,.513,1.348l.006.053,0-1.019h.251a1.586,1.586,0,0,1,.24.019,3.658,3.658,0,0,0-.375-.1A1.536,1.536,0,0,1,9.2,1.96" fill="#303134"/>
    <path id="Path_2249" data-name="Path 2249" d="M11.123,23c-.163,0-.325,0-.485,0l-.472,0H6.914q-2.442,0-4.881,0A1.767,1.767,0,0,1,.019,21.458a1.6,1.6,0,0,1,.926-1.8c.176-.074.2-.086.2-.45-.009-1.751-.008-3.5-.007-5.253V9.079q0-2.271,0-4.539A2.77,2.77,0,0,1,3.6,1.527.629.629,0,0,0,3.9,1.365,3.991,3.991,0,0,1,6.792,0,3.844,3.844,0,0,1,9.624,1.336a.738.738,0,0,0,.357.194A2.76,2.76,0,0,1,12.41,4.5q0,7.331-.006,14.664c0,.4.022.421.229.508a1.6,1.6,0,0,1,.875,1.921,1.684,1.684,0,0,1-1.638,1.383c-.249.019-.5.024-.747.024m-.957-.509.479,0c.392.007.791.012,1.189-.017a1.187,1.187,0,0,0,1.185-.988,1.4,1.4,0,0,0-.051-.83l-1.005-.238a1.964,1.964,0,0,0-.461-.041c-.693,0-1.384.008-2.078,0,.694,0,1.385,0,2.077,0,.708,0,1.043.244,1.1.791a.649.649,0,0,1-.159.524,1.252,1.252,0,0,1-.945.325q-4.724.006-9.448,0a1.247,1.247,0,0,1-.942-.325.656.656,0,0,1-.16-.527c.056-.5.348-.75.938-.784a1.457,1.457,0,0,0-.3.038l-1,.24a1.456,1.456,0,0,0-.073.731c.064.5.38,1.094,1.519,1.1q2.439,0,4.88,0Zm-8.131-1.86v.25c-.551,0-.568.151-.589.342a.156.156,0,0,0,.035.14.815.815,0,0,0,.569.158q4.723.006,9.448,0a.821.821,0,0,0,.573-.158.163.163,0,0,0,.034-.139c-.02-.191-.037-.343-.588-.343-1.1,0-2.188,0-3.275,0H5.408q-1.678,0-3.359,0Zm9.913-.994a.631.631,0,0,0,.227.345l.757.6a.975.975,0,0,0-.495-.45.745.745,0,0,1-.489-.5m-10.584.354a1.092,1.092,0,0,1-.225.125.986.986,0,0,0-.5.438Zm.687.39h0Zm.088-.511H11.43l.018-.187-.021.187H2.143l-.029-.183Zm-.282-.212.255.016,0-.015L2.1,19.622Zm9.729-1.45.353,1.39a1.95,1.95,0,0,1-.035-.436q.016-7.331.006-14.662a2.2,2.2,0,0,0-1.63-2.376l-.115.48.108.027a1.56,1.56,0,0,1,1.084,1.091,2.913,2.913,0,0,1,.111.822q.012,7.4,0,14.8c0,.032,0,.062,0,.093ZM5.257.921a4.127,4.127,0,0,0-.988.786,1.131,1.131,0,0,1-.57.31A2.277,2.277,0,0,0,1.641,4.54q0,2.27,0,4.539v4.874c0,1.75,0,3.5.007,5.249a2,2,0,0,1-.02.346L1.913,18.3l.179,1.235a1.593,1.593,0,0,1-.013-.194q-.006-7.4,0-14.8A1.762,1.762,0,0,1,3.261,2.63l.326-.1v-.2l-.055-.271c.056-.013.112-.026.171-.038a1.153,1.153,0,0,0,.475-.226ZM2.579,19.37h8.394v-.023q0-7.4,0-14.8a2.421,2.421,0,0,0-.09-.679,1.143,1.143,0,0,0-.414-.6v.183c0,.777.005,1.555-.012,2.333-.018.811-.267,1.058-.453,1.173-.39.242-.477.615-.6,1.132-.023.1-.046.2-.072.293A1.4,1.4,0,0,1,7.8,9.549c-.681-.032-1.368-.032-2.045,0A1.4,1.4,0,0,1,4.221,8.381l-.065-.273c-.121-.526-.209-.9-.6-1.15-.294-.183-.443-.567-.457-1.172-.017-.777-.015-1.557-.012-2.353V3.261a1.412,1.412,0,0,0-.5,1.277q-.014,7.4,0,14.8v.028M5.342,9.011a1.323,1.323,0,0,0,.4.038c.633-.03,1.276-.032,1.912-.007l-2.286-.1,2.345-.4a.755.755,0,0,0,.66-.432l.466.178c0-.015.007-.03.012-.045.024-.093.046-.187.068-.28A4.872,4.872,0,0,1,9.1,7.321l-.476-.134-.014.078C8.366,8.622,8,8.617,5.988,8.592c-.76-.012-.879-.193-1.022-1.171l.2,1.458.211-.384a.572.572,0,0,0,.1.039Zm2.444.037.081,0ZM4.48,7.391a5.586,5.586,0,0,1,.163.6l.064.268a1.068,1.068,0,0,0,.354.613Zm1,.08c.091.615.133.615.49.621,1.75.022,1.954.024,2.093-.621Zm-.574-.5h0ZM3.654,6.245a.456.456,0,0,0,.165.289,1.5,1.5,0,0,1,.3.246ZM9.9,6.231l-.47.543a1.508,1.508,0,0,1,.306-.247.477.477,0,0,0,.164-.3m-1.843.215c.242,0,.485,0,.727.011a1.2,1.2,0,0,0,.343-.039l.786-.248a2.563,2.563,0,0,0,.039-.4c.017-.772.014-1.546.012-2.319V3.361l-.5.027,0-.028a16.6,16.6,0,0,1,.051,1.955l-.005.514a.626.626,0,0,1-.166.466.793.793,0,0,1-.546.162c-.253-.008-.5-.01-.739-.011m-3.294.011h.011c.3-.01.608-.01.915-.011-.315,0-.618,0-.926.011M6.12,6.448l.655,0Zm1.261,0-.6,0ZM3.637,6.175l.783.242a.891.891,0,0,0,.2.033.649.649,0,0,1-.409-.156.631.631,0,0,1-.166-.469l-.005-.514a16.185,16.185,0,0,1,.056-1.979c.005-.054.013-.107.022-.159-.009.052-.017.106-.022.159H4.085v.044h-.5v.058c0,.792-.005,1.566.012,2.339a2.3,2.3,0,0,0,.04.4m4.319-.229c.282,0,.563,0,.844.011A.511.511,0,0,0,9,5.931a.827.827,0,0,0,.01-.106l.005-.511a15.968,15.968,0,0,0-.051-1.925,2.206,2.206,0,0,0-4.374,0A15.72,15.72,0,0,0,4.536,5.3l.005.515a.281.281,0,0,0,.018.12,1.118,1.118,0,0,0,.2.017c.42-.013.852-.009,1.288-.01l.726,0ZM5.448.82,4.541,2.128a2.588,2.588,0,0,0-.348.717A2.691,2.691,0,0,1,6.779.971,2.725,2.725,0,0,1,9.184,2.42,2.487,2.487,0,0,0,8.992,2.1L8.049.778a3.022,3.022,0,0,0-2.6.042M8.3.907l1.054.859a1.286,1.286,0,0,0,.526.254c.1.022.2.046.3.074-.1-.028-.195-.052-.3-.074a1.254,1.254,0,0,1-.622-.343A3.966,3.966,0,0,0,8.3.907" fill="#303134"/>
    <path id="Path_2250" data-name="Path 2250" d="M6.785,13.505c.788,0,1.576,0,2.363,0a1.23,1.23,0,0,1,1.315.917,1.342,1.342,0,0,1-.55,1.458,2.023,2.023,0,0,0-.506.983c-.281,1.076-.468,1.251-1.565,1.254-.788,0-1.576-.014-2.363,0a1.1,1.1,0,0,1-1.246-.945A2.252,2.252,0,0,0,3.4,15.585a1.315,1.315,0,0,1-.239-1.23,1.579,1.579,0,0,1,1.059-.8,18.128,18.128,0,0,1,2.566-.037v-.008m.059.441c-.784,0-1.569,0-2.354,0-.557,0-.986.226-.984.823s.417.825.984.823q2.285-.006,4.57,0c.563,0,.98-.225.982-.822s-.426-.822-.982-.824c-.738,0-1.477,0-2.216,0M4.558,16.063c.007,1.409.2,1.613,1.483,1.615q.8,0,1.6,0c1.14,0,1.462-.389,1.313-1.615Z" fill="#303134"/>
    <path id="Path_2251" data-name="Path 2251" d="M5.431,18.369a1.334,1.334,0,0,1-1.442-1.141l-.018-.08a1.929,1.929,0,0,0-.715-1.358,1.54,1.54,0,0,1-.326-1.533A1.811,1.811,0,0,1,4.183,13.3a10.712,10.712,0,0,1,1.859-.055c.18.006.361.011.54.014l.879-.007c.562,0,1.125,0,1.687,0h.01a1.475,1.475,0,0,1,1.545,1.1,1.6,1.6,0,0,1-.624,1.714,1.756,1.756,0,0,0-.43.859c-.312,1.195-.616,1.437-1.806,1.44l-.82,0c-.513,0-1.026,0-1.538.006H5.431m-.67-.7a.8.8,0,0,0,.408.179,1.125,1.125,0,0,1-.408-.179m4.108-.076a1.157,1.157,0,0,1-.448.24.621.621,0,0,0,.448-.24M4.811,16.313c.025,1.075.2,1.113,1.231,1.115h1.6c.492,0,.789-.078.935-.243a1.2,1.2,0,0,0,.152-.872Zm4.365-.474.023.193a4.345,4.345,0,0,1,.037.525,2.022,2.022,0,0,1,.477-.835,1.528,1.528,0,0,1-.537.117m-5.221-.075a2.128,2.128,0,0,1,.365.717q-.01-.192-.012-.417v-.23a1.614,1.614,0,0,1-.352-.07m2.66-.425,2.446,0h0c.726,0,.728-.416.728-.573a.5.5,0,0,0-.18-.436.95.95,0,0,0-.552-.138H4.491a.88.88,0,0,0-.6.182.524.524,0,0,0-.131.391c0,.157,0,.574.729.574h0q1.062,0,2.125,0" fill="#303134"/>
    <path id="Path_2252" data-name="Path 2252" d="M5.431,18.37a1.334,1.334,0,0,1-1.442-1.142l-.018-.08a1.929,1.929,0,0,0-.715-1.358,1.538,1.538,0,0,1-.326-1.533A1.81,1.81,0,0,1,4.183,13.3a10.811,10.811,0,0,1,1.859-.054c.179.006.358.01.536.012l.207-.006h.71c.552,0,1.1,0,1.652,0h.007a1.478,1.478,0,0,1,1.549,1.1,1.6,1.6,0,0,1-.624,1.715,1.735,1.735,0,0,0-.43.859c-.312,1.194-.616,1.437-1.806,1.441l-.82,0c-.513,0-1.026-.007-1.539.006H5.431M4.8,17.7a.819.819,0,0,0,.357.149A1.173,1.173,0,0,1,4.8,17.7m4.068-.1a1.148,1.148,0,0,1-.445.238.622.622,0,0,0,.445-.238M4.811,16.313c.025,1.075.2,1.113,1.231,1.114h1.6c.492,0,.789-.077.935-.242a1.2,1.2,0,0,0,.152-.872Zm4.365-.474.023.194a4.3,4.3,0,0,1,.036.523,2.028,2.028,0,0,1,.48-.836,1.517,1.517,0,0,1-.539.119m-5.22-.075a2.172,2.172,0,0,1,.364.717c-.007-.128-.011-.266-.012-.417v-.23a1.537,1.537,0,0,1-.351-.07M7.4,14.195H4.491a.872.872,0,0,0-.6.181.521.521,0,0,0-.133.39c0,.157,0,.574.726.574h.007q2.288-.006,4.572,0h0c.644,0,.727-.3.728-.573a.5.5,0,0,0-.18-.434A.952.952,0,0,0,9.06,14.2Z" fill="#303134"/>
    <path id="Path_2253" data-name="Path 2253" d="M5.431,18.619a1.577,1.577,0,0,1-1.686-1.338l-.017-.08a1.7,1.7,0,0,0-.615-1.207A1.775,1.775,0,0,1,2.7,14.159a2.052,2.052,0,0,1,1.447-1.1A10.579,10.579,0,0,1,6.01,13c.218.007.395.012.572.014l.2-.007H7.91c.411,0,.824,0,1.236,0a1.737,1.737,0,0,1,1.8,1.277,1.87,1.87,0,0,1-.7,1.972,1.452,1.452,0,0,0-.354.733c-.34,1.305-.742,1.625-2.046,1.629l-.909,0c-.481,0-.963,0-1.445.007ZM4.652,17.9a1.265,1.265,0,0,0,.779.216v.25l.02-.25c.514-.013,1-.01,1.488-.008l.9,0a3.946,3.946,0,0,0,.615-.037l-.107-.482a2.519,2.519,0,0,1-.714.082h-1.6a3.666,3.666,0,0,1-.826-.064l-.105.48a1.077,1.077,0,0,1-.459-.193ZM4.584,16.71l.067,1.181.28-.4a.978.978,0,0,1-.347-.786m.7-3.226a7.314,7.314,0,0,0-1.065.066,1.574,1.574,0,0,0-1.059.8A1.326,1.326,0,0,0,3.4,15.584a2.157,2.157,0,0,1,.817,1.51l.017.08a1.469,1.469,0,0,0,.2.49l-.346-1.109a1.9,1.9,0,0,0-.322-.636l-.521-.655.8.262a1.236,1.236,0,0,0,.294.058l.228.02,0,.459H8.952L8.9,15.6l.244-.013H9.064q-2.29-.006-4.574,0c-.371,0-.981-.107-.983-.823a.77.77,0,0,1,.2-.569,1.067,1.067,0,0,1,.779-.254H9.06a1.173,1.173,0,0,1,.7.187.739.739,0,0,1,.282.637.729.729,0,0,1-.412.715l.836-.37a1.182,1.182,0,0,0,0-.7A1.231,1.231,0,0,0,9.155,13.5c-.419,0-.831,0-1.246,0l-1.322.006c-.191,0-.372-.007-.553-.013-.253-.007-.5-.014-.749-.014m3.694,2.873a1.338,1.338,0,0,1-.218.993.769.769,0,0,1-.082.079L8.7,17.41l.287-.255,0-.6c0-.064,0-.13-.007-.2m-3.911.206c.025.613.119.613.974.614h1.6c.5,0,.684-.086.748-.158a.709.709,0,0,0,.1-.456Zm4.4.08-.04.119,0,0c.011-.039.023-.078.036-.115m.642-.957-.225.214a1.252,1.252,0,0,0-.1.113,1.118,1.118,0,0,1,.128-.136c.067-.059.134-.123.2-.191m-3.466-.6q1.209,0,2.415,0c.48,0,.48-.165.481-.324,0-.174-.057-.216-.079-.233a.7.7,0,0,0-.4-.089H4.491a.648.648,0,0,0-.425.108c-.014.014-.06.059-.059.213s0,.325.476.325l2.164,0" fill="#303134"/>
  </g>
</svg>
