<svg id="Group_6837" data-name="Group 6837" xmlns="http://www.w3.org/2000/svg" xmlns:xlink="http://www.w3.org/1999/xlink" width="24" height="24" viewBox="0 0 24 24">
  <defs>
    <clipPath id="clip-path">
      <rect id="Rectangle_3133" data-name="Rectangle 3133" width="24" height="24" fill="none"/>
    </clipPath>
  </defs>
  <g id="Group_6836" data-name="Group 6836" clip-path="url(#clip-path)">
    <path id="Path_2254" data-name="Path 2254" d="M8.062,21.832H4.771c.059-5.546.119-11.086.179-16.66,1.828,2.117,3.875,3.957,5.832,5.95h-.266c-.813,0-1.626,0-2.439,0a.824.824,0,0,0-.838.965.839.839,0,0,0,.876.7c1.3,0,2.6.014,3.9-.007a1.059,1.059,0,0,1,.844.332c.6.6,1.22,1.178,1.834,1.763a.312.312,0,0,1,.092.314,4.109,4.109,0,0,0,.79,3.306.286.286,0,0,1,.04.219A4.216,4.216,0,0,1,14,20.994a10.276,10.276,0,0,1-1.043.643.753.753,0,0,1-.354.086c-1.181.006-2.361,0-3.542,0a.544.544,0,0,1-.226-.029,4.18,4.18,0,0,1-1.924-1.6,4.1,4.1,0,0,1-.322-.839c-.043-.132-.074-.257-.237-.218s-.167.181-.11.3a4.611,4.611,0,0,0,.456.877c.4.513.848.989,1.28,1.477a.49.49,0,0,0,.135.081l-.047.06m2.695-4.621c0,.2,0,.4,0,.6,0,.121.041.219.175.221s.189-.1.189-.227V16.585c0-.126-.063-.214-.186-.213s-.18.094-.178.219c0,.206,0,.413,0,.62m0-2.617c0,.195,0,.39,0,.585,0,.129.041.235.18.234s.185-.105.185-.233q0-.6,0-1.2c0-.132-.05-.226-.191-.223s-.174.1-.173.222c0,.206,0,.413,0,.62m.362,4.955a1.58,1.58,0,0,0-.008-.371c-.018-.071-.114-.123-.175-.184-.06.061-.165.118-.171.184a4.1,4.1,0,0,0,0,.709.263.263,0,0,0,.166.182c.112.025.183-.064.188-.183s0-.224,0-.337" fill="#303134"/>
    <path id="Path_2255" data-name="Path 2255" d="M18.378,22.958V2.257c0-.468,0-.468-.47-.468H5.483c-.344,0-.517-.122-.522-.37s.181-.382.529-.382q6.781,0,13.563-.007a.7.7,0,0,1,.754.757q-.01,7.929,0,15.86v5.311Z" fill="#303134"/>
    <path id="Path_2256" data-name="Path 2256" d="M18.007,22.089v.87c-.066,0-.128.01-.191.01H4.749a1.321,1.321,0,0,1-.141,0,.438.438,0,0,1,.007-.875c.041,0,.082,0,.125,0H18.007" fill="#303134"/>
    <path id="Path_2257" data-name="Path 2257" d="M18.064,11.484v.939H8.151c-.358,0-.566-.179-.562-.475A.454.454,0,0,1,8,11.491a2.159,2.159,0,0,1,.267-.007h9.795" fill="#303134"/>
    <path id="Path_2258" data-name="Path 2258" d="M15.729,18.073a3.64,3.64,0,0,1-.609-2.627,1.425,1.425,0,0,1,.382.715,6.356,6.356,0,0,0,.224,1.109,1.606,1.606,0,0,1,0,.8" fill="#303134"/>
    <path id="Path_2259" data-name="Path 2259" d="M15.826,16.121a.6.6,0,0,1,.229,1.092c-.079-.375-.15-.713-.229-1.092" fill="#303134"/>
    <path id="Path_2260" data-name="Path 2260" d="M10.757,17.211c0-.207,0-.414,0-.62,0-.125.052-.218.178-.219s.187.087.187.213v1.223c0,.128-.048.229-.19.227s-.174-.1-.174-.221v-.6" fill="#303134"/>
    <path id="Path_2261" data-name="Path 2261" d="M10.758,14.594c0-.207,0-.414,0-.62,0-.122.038-.218.172-.222s.192.091.192.223q0,.6,0,1.2c0,.128-.048.233-.184.233s-.183-.105-.181-.234c0-.195,0-.39,0-.585" fill="#303134"/>
    <path id="Path_2262" data-name="Path 2262" d="M11.12,19.549c0,.113,0,.225,0,.337s-.076.208-.188.183a.264.264,0,0,1-.165-.182,4,4,0,0,1,0-.709c.006-.066.111-.123.17-.184.061.061.158.113.176.184a1.58,1.58,0,0,1,.008.371" fill="#303134"/>
  </g>
</svg>
