<svg id="Group_6843" data-name="Group 6843" xmlns="http://www.w3.org/2000/svg" xmlns:xlink="http://www.w3.org/1999/xlink" width="24" height="24" viewBox="0 0 24 24">
  <defs>
    <clipPath id="clip-path">
      <rect id="Rectangle_3136" data-name="Rectangle 3136" width="24" height="24" fill="none"/>
    </clipPath>
  </defs>
  <g id="Group_6842" data-name="Group 6842" clip-path="url(#clip-path)">
    <path id="Path_2270" data-name="Path 2270" d="M11.988,15.146c-.521-.525-1.028-1.038-1.538-1.549q-2-2.005-4.008-4.008A.445.445,0,0,1,6.3,9.235c.008-.958-.027-1.919.018-2.875a5.7,5.7,0,0,1,11.268-.838A6.074,6.074,0,0,1,17.7,6.647c.016.871.008,1.742,0,2.613a.44.44,0,0,1-.1.283q-2.75,2.764-5.508,5.517c-.024.023-.051.043-.1.086M12.014,3.5a3.628,3.628,0,1,0,3.613,3.628A3.623,3.623,0,0,0,12.014,3.5" fill="#303134"/>
    <path id="Path_2271" data-name="Path 2271" d="M7.343,20.589,17.7,10.226v.224q0,3.434,0,6.866a5.657,5.657,0,0,1-4.736,5.6,5.571,5.571,0,0,1-5.452-2.088c-.064-.077-.118-.162-.173-.237" fill="#303134"/>
    <path id="Path_2272" data-name="Path 2272" d="M6.3,10.238l5.273,5.274L7,20.081c-.129-.306-.281-.625-.4-.956A5.556,5.556,0,0,1,6.3,17.2q.008-3.349,0-6.7v-.257" fill="#303134"/>
    <path id="Path_2273" data-name="Path 2273" d="M13.777,7.379a.671.671,0,0,1-.008-1.341.687.687,0,0,1,.676.668.679.679,0,0,1-.668.673" fill="#303134"/>
    <path id="Path_2274" data-name="Path 2274" d="M10.9,6.712a.67.67,0,0,1-1.34,0,.687.687,0,0,1,.674-.67.675.675,0,0,1,.666.674" fill="#303134"/>
  </g>
</svg>
