<svg id="Group_6841" data-name="Group 6841" xmlns="http://www.w3.org/2000/svg" xmlns:xlink="http://www.w3.org/1999/xlink" width="24" height="24" viewBox="0 0 24 24">
  <defs>
    <clipPath id="clip-path">
      <rect id="Rectangle_3135" data-name="Rectangle 3135" width="24" height="24" fill="none"/>
    </clipPath>
  </defs>
  <g id="Group_6840" data-name="Group 6840" clip-path="url(#clip-path)">
    <path id="Path_2268" data-name="Path 2268" d="M15.25,17.1v4.68h-7v-3h-1a2.006,2.006,0,0,1-2-2v-2h-1a1,1,0,0,1-.85-1.52L5.33,9.78a7,7,0,0,1,6.92-6,6.886,6.886,0,0,1,3.46.93L14.34,6.08,9.86,10.57l-.72.71.72.71a4.564,4.564,0,0,0,3.17,1.28,3.334,3.334,0,0,0,2.31-.82l1.25-1.27.37-.37.71-.7-.71-.71-.42-.43,1.73-1.73a6.818,6.818,0,0,1,.93,2.6,7.009,7.009,0,0,1-3.95,7.26" fill="#303134"/>
    <path id="Path_2269" data-name="Path 2269" d="M17.69,6.4,15.12,8.97l1.13,1.14-.37.37-1.24,1.25a2.366,2.366,0,0,1-1.61.54,3.551,3.551,0,0,1-2.47-.99l4.48-4.49,1.51-1.51,3.06-3.06,1.14,1.13Z" fill="#303134"/>
  </g>
</svg>
