<svg id="Group_6839" data-name="Group 6839" xmlns="http://www.w3.org/2000/svg" xmlns:xlink="http://www.w3.org/1999/xlink" width="24" height="24" viewBox="0 0 24 24">
  <defs>
    <clipPath id="clip-path">
      <rect id="Rectangle_3134" data-name="Rectangle 3134" width="24" height="24" fill="none"/>
    </clipPath>
  </defs>
  <g id="Group_6838" data-name="Group 6838" clip-path="url(#clip-path)">
    <path id="Path_2263" data-name="Path 2263" d="M13.885,11.25a.517.517,0,0,0-.08-.19.912.912,0,0,0,.42.14c.12.01.14.04.15.07a.315.315,0,0,1-.27.15.359.359,0,0,1-.11-.02.217.217,0,0,1-.11-.15" fill="#303134"/>
    <path id="Path_2264" data-name="Path 2264" d="M15.625,14.42l-.06.01h-.05a1.237,1.237,0,0,0-.7-1.01l-.21-.11a3.947,3.947,0,0,1-.46-.23,1.452,1.452,0,0,1-.7-1.01l.03-.03a1.48,1.48,0,0,0,.13.08,1.3,1.3,0,0,0,.74.91l.2.09c.14.07.27.14.41.21a1.265,1.265,0,0,1,.67,1.09" fill="#303134"/>
    <path id="Path_2265" data-name="Path 2265" d="M17.435,11.29v.02c-.01.05-.01.09-.02.14a1.514,1.514,0,0,1-1.48,1.27,1.487,1.487,0,0,1-.36-.05,4.287,4.287,0,0,1-.99-.46.3.3,0,0,1-.07-.05.962.962,0,0,0,.32-.2,1.1,1.1,0,0,0,.52.14,1.492,1.492,0,0,0,.21-.02,1.036,1.036,0,0,0,.63-.38,1.145,1.145,0,0,0,.35.07,1.134,1.134,0,0,0,.89-.48" fill="#303134"/>
    <path id="Path_2266" data-name="Path 2266" d="M18,8.82a.279.279,0,0,1,.06.3.349.349,0,0,1-.17.14h-.24c-.08-.01-.08-.06-.08-.07a.971.971,0,0,0-.37-.74.875.875,0,0,0-.55-.19,1.149,1.149,0,0,0-.36.07.911.911,0,0,0-.56.71c0,.04-.01.08-.01.11-.01.07-.03.07-.05.07a.089.089,0,0,1-.08-.05v-.1a.448.448,0,0,1-.01-.11.407.407,0,0,0-.81-.01.929.929,0,0,0,.66,1.06.986.986,0,0,0,.24.03.864.864,0,0,0,.87-.8c.01-.15.06-.15.1-.15.09,0,.09.05.1.07a1.016,1.016,0,0,0,.18.55.952.952,0,0,0,.77.38.239.239,0,0,1-.07.13.219.219,0,0,1-.12.07l-.03-.02H17.4a1.405,1.405,0,0,0-.18-.02c-.38,0-.41.33-.43.49a.26.26,0,0,1-.25.2.266.266,0,0,1-.12-.03.727.727,0,0,0-.38-.16c-.22,0-.32.17-.44.38a.292.292,0,0,1-.24.15.266.266,0,0,1-.16-.06.891.891,0,0,0-.87-.83c-.08-.01-.08-.03-.08-.05,0-.05.04-.08.09-.09l.01-.1a.06.06,0,0,1,.04-.01l.01.11a.572.572,0,0,0,.14-.01.4.4,0,0,0,0-.8.86.86,0,0,0-.16-.01.908.908,0,0,0-.91.66.841.841,0,0,0,.12.74.209.209,0,0,0,.04.06.611.611,0,0,0-.24-.07.307.307,0,0,1-.29-.24l-.03-.07-.03-.1a.438.438,0,0,0-.51-.29l-.09.02c-.04.01-.07.01-.11.02-.02,0-.04.01-.06.01a.223.223,0,0,1-.19-.1l-.12-.14a.444.444,0,0,0-.34-.17.436.436,0,0,0-.29.12l-.07.06c-.03.02-.05.05-.08.07a.272.272,0,0,1-.17.06.289.289,0,0,1-.22-.13l-.03-.06-.05-.09a.427.427,0,0,0-.36-.22.467.467,0,0,0-.24.07l-.08.05-.06.04a.425.425,0,0,1-.11.02.226.226,0,0,1-.22-.21c.01-.38-.1-.52-.44-.58-.08-.01-.12-.04-.15-.15a.188.188,0,0,1,.07-.21c.31-.24.4-.4.14-.78a.222.222,0,0,1-.02-.19.214.214,0,0,1,.12-.14.542.542,0,0,1,.15-.02l.05-.01a.418.418,0,0,0,.42-.47V6.92a.363.363,0,0,1,.01-.19.212.212,0,0,1,.21-.13.364.364,0,0,1,.14.02c.05.03.04.04.03.07a.218.218,0,0,1-.04.05.941.941,0,0,0-.2.88.919.919,0,0,0,.62.62,1.471,1.471,0,0,0,.27.04.914.914,0,0,0,.56-.2l.04-.04a.25.25,0,0,1,.08-.04c.06.04.06.09.04.12a.265.265,0,0,0-.05.06.812.812,0,0,0-.09.1.391.391,0,0,0,.04.54.378.378,0,0,0,.28.12.407.407,0,0,0,.24-.08,1.01,1.01,0,0,0,.41-.69.92.92,0,0,0-.21-.69.894.894,0,0,0-.67-.3.849.849,0,0,0-.53.18l-.05.04c-.04.04-.07.06-.1.06a.072.072,0,0,1-.06-.04c-.07-.06-.03-.1-.02-.12a.94.94,0,0,0,.23-.93,1.008,1.008,0,0,0-.12-.23.262.262,0,0,1,.22-.15.3.3,0,0,1,.1.02.251.251,0,0,0,.07.04.723.723,0,0,0,.35.13.492.492,0,0,0,.41-.31,1.48,1.48,0,0,1,.08-.13.227.227,0,0,1,.18-.07.32.32,0,0,1,.18.05v.16c0,.12,0,.23.01.35a.9.9,0,0,0,.76.8l.11.01c.12.01.12.07.12.1s-.01.09-.13.1a.887.887,0,0,0-.63,1.44.848.848,0,0,0,.59.33.915.915,0,0,0,.17.01h.11a.415.415,0,0,0,.39-.41.4.4,0,0,0-.34-.4.86.86,0,0,0-.16-.01c-.07,0-.14-.01-.14-.09,0-.02,0-.04.1-.05a.919.919,0,0,0,.16-1.81.9.9,0,0,0-.16-.03.2.2,0,0,1-.07-.01.057.057,0,0,1-.06-.06l-.01-.06a2.6,2.6,0,0,1,.01-.4c0-.01.03-.05.12-.1a.3.3,0,0,1,.1-.02.246.246,0,0,1,.19.09l.06.07c.03.04.06.07.09.11a.394.394,0,0,0,.56.06c.04-.03.07-.06.11-.09l.07-.05a.22.22,0,0,1,.15-.06.251.251,0,0,1,.22.14l.04.07a.539.539,0,0,0,.07.13.4.4,0,0,0,.35.21.584.584,0,0,0,.18-.04l.12-.06a.925.925,0,0,1,.1-.05.292.292,0,0,1,.09-.02.243.243,0,0,1,.18.09.921.921,0,0,0-.32.87c0,.04-.01.05-.02.05l-.13.11c-.01-.01-.02,0-.02-.01l.08-.1a.287.287,0,0,1-.06-.11.764.764,0,0,0-.05-.16.384.384,0,0,0-.36-.26h-.02l-.06.01a.389.389,0,0,0-.34.39.938.938,0,0,0,.8.96c.04,0,.09.01.13.01a.875.875,0,0,0,.87-.77.848.848,0,0,0-.01-.23c-.01-.1.02-.14.09-.15l.15-.03a.308.308,0,0,1,.11-.02.261.261,0,0,1,.17.07.338.338,0,0,1,.06.2c-.05.46.04.58.49.66a.22.22,0,0,1,.17.17.161.161,0,0,1-.03.17.73.73,0,0,0-.09.1.434.434,0,0,0,.01.6.6.6,0,0,1,.08.08Z" fill="#303134"/>
    <path id="Path_2267" data-name="Path 2267" d="M19.945,9.06A7,7,0,0,0,6.075,9l-1.93,3.48A1,1,0,0,0,4.995,14h1v2a2.006,2.006,0,0,0,2,2h1v3h7V16.32a7.009,7.009,0,0,0,3.95-7.26m-1.03.1-.02.04-.02.08a1.587,1.587,0,0,1-.07.2.983.983,0,0,1-.3.37,1,1,0,0,1-.2.84,1.66,1.66,0,0,1-.18.19.444.444,0,0,1,.14.34,2.329,2.329,0,0,1-1.63,2.2,2.087,2.087,0,0,1-.41.09,1.87,1.87,0,0,1,.22,1.04.791.791,0,0,1-.74.7h-.15a1.994,1.994,0,0,1-.27-.02.767.767,0,0,1-.61-.73.389.389,0,0,0-.27-.37,6.364,6.364,0,0,1-.64-.32,2.239,2.239,0,0,1-1.14-1.69,1.042,1.042,0,0,1-.58-.55,1.02,1.02,0,0,1-.09-.64,1.15,1.15,0,0,1-.17-.06,1.908,1.908,0,0,1-.21-.15,1.176,1.176,0,0,1-.58.18,1.094,1.094,0,0,1-.78-.39.842.842,0,0,1-.35.07.824.824,0,0,1-.26-.04,1.042,1.042,0,0,1-.78-.83.96.96,0,0,1-.59-.77.967.967,0,0,1,.23-.86,1.06,1.06,0,0,1,.69-1.39,1.082,1.082,0,0,1,1.04-.92h.11a1.037,1.037,0,0,1,.55-.52,1.241,1.241,0,0,1,.41-.08,1.03,1.03,0,0,1,.35.06,1,1,0,0,1,.65-.37,1.225,1.225,0,0,1,.19-.02,1,1,0,0,1,.54.15,1.047,1.047,0,0,1,.68-.24h.02a1.06,1.06,0,0,1,.69.27,1.03,1.03,0,0,1,.51-.14,1.138,1.138,0,0,1,.86.43.84.84,0,0,1,.31-.05,1.049,1.049,0,0,1,.45.1,1.019,1.019,0,0,1,.54.54h.04a1.036,1.036,0,0,1,.7.28,1,1,0,0,1,.35.72,1.007,1.007,0,0,1,.6.61,1.026,1.026,0,0,1-.05.86,1.568,1.568,0,0,1,.21.45l.01.03Z" fill="#303134"/>
  </g>
</svg>
