<svg id="Group_6805" data-name="Group 6805" xmlns="http://www.w3.org/2000/svg" xmlns:xlink="http://www.w3.org/1999/xlink" width="24" height="24" viewBox="0 0 24 24">
  <defs>
    <clipPath id="clip-path">
      <rect id="Rectangle_3117" data-name="Rectangle 3117" width="24" height="24" fill="none"/>
    </clipPath>
  </defs>
  <g id="Group_6804" data-name="Group 6804" clip-path="url(#clip-path)">
    <path id="Path_2181" data-name="Path 2181" d="M20.99,12.318a.621.621,0,0,1,0-.66,10.432,10.432,0,0,0,1.19-4.667l0-.14a3.42,3.42,0,0,0-.006-.365,6.068,6.068,0,0,0-.088-.671,4.576,4.576,0,0,0-3.355-3.769,6.927,6.927,0,0,0-3.4-.065,13.268,13.268,0,0,0-3.351,1.182c-.237-.128-.482-.241-.73-.348a10.323,10.323,0,0,0-4.471-1A5.022,5.022,0,0,0,3.325,3.13,4.966,4.966,0,0,0,1.808,6.887a10.1,10.1,0,0,0,1.161,4.68.821.821,0,0,1-.006.856A10.219,10.219,0,0,0,1.81,17.276a5.112,5.112,0,0,0,.974,3,4.919,4.919,0,0,0,4.005,1.921,10.42,10.42,0,0,0,4.537-1.033,2.955,2.955,0,0,0,.3-.16,1.045,1.045,0,0,1,.353-.158,1.109,1.109,0,0,1,.393.166c.1.054.2.107.294.151A10.622,10.622,0,0,0,16.981,22.2c.083,0,.166,0,.249,0a4.828,4.828,0,0,0,4.959-4.913,10.383,10.383,0,0,0-1.2-4.962M8.02,19.846a5.029,5.029,0,0,1-1.858.013,2.429,2.429,0,0,1-2.055-2.22,6.794,6.794,0,0,1,.433-3.1c.019-.057.039-.112.06-.169a21.306,21.306,0,0,0,5.037,5.034,8.8,8.8,0,0,1-1.617.438M4.595,9.634a7.005,7.005,0,0,1-.484-3.307A2.412,2.412,0,0,1,6.153,4.152a5.02,5.02,0,0,1,.908-.083A7.533,7.533,0,0,1,9.632,4.6,21.447,21.447,0,0,0,4.595,9.634m1.136,2.4A18.959,18.959,0,0,1,12,5.751a18.865,18.865,0,0,1,6.25,6.263,18.931,18.931,0,0,1-5.607,5.83c-.091.061-.184.119-.278.177-.13.081-.26.161-.37.235a19.059,19.059,0,0,1-5.584-5.235c-.134-.188-.259-.383-.383-.579a2.973,2.973,0,0,0-.3-.412M19.405,9.635A21.4,21.4,0,0,0,14.365,4.6a8.578,8.578,0,0,1,1.958-.489,4.649,4.649,0,0,1,1.629.059,2.444,2.444,0,0,1,1.94,2.186,7.031,7.031,0,0,1-.487,3.279M19.4,14.379c.107.312.208.616.292.924a5.425,5.425,0,0,1,.171,2.512A2.422,2.422,0,0,1,17.7,19.89a7.143,7.143,0,0,1-3.33-.484A21.429,21.429,0,0,0,19.4,14.379" fill="#303134"/>
    <path id="Path_2182" data-name="Path 2182" d="M14.506,9.5A3.511,3.511,0,0,0,12,8.467h0a3.533,3.533,0,1,0,0,7.066h.009a3.538,3.538,0,0,0,2.5-6.032" fill="#303134"/>
  </g>
</svg>
