<svg id="Group_6845" data-name="Group 6845" xmlns="http://www.w3.org/2000/svg" xmlns:xlink="http://www.w3.org/1999/xlink" width="24" height="24" viewBox="0 0 24 24">
  <defs>
    <clipPath id="clip-path">
      <rect id="Rectangle_3137" data-name="Rectangle 3137" width="24" height="24" fill="none"/>
    </clipPath>
  </defs>
  <g id="Group_6844" data-name="Group 6844" clip-path="url(#clip-path)">
    <path id="Path_2275" data-name="Path 2275" d="M12,16.8,7.407,22.5,4.075,19.825,9.3,13.39c-.2-.257-.407-.509-.608-.762-.415-.523-.842-1.037-1.242-1.571A5.64,5.64,0,0,1,6.371,8.634,2.635,2.635,0,0,1,6.593,7c.689-1.44,1.365-2.886,2.047-4.329a.087.087,0,0,1,.042-.046c-.008.093-.011.187-.024.28a5.326,5.326,0,0,0,.545,3A9.177,9.177,0,0,0,10.425,7.85q3.231,4.062,6.464,8.125c.985,1.235,1.981,2.461,2.972,3.692.02.025.039.051.064.084L16.594,22.5,12,16.8" fill="#303134"/>
    <path id="Path_2276" data-name="Path 2276" d="M14.829,5.784c-.213-.03-.411-.068-.61-.086a20.322,20.322,0,0,0-3.319-.03c-.194.015-.39.014-.585.024a.1.1,0,0,1-.113-.068,7.185,7.185,0,0,1-.571-2.105,7.751,7.751,0,0,1,0-1.633.167.167,0,0,1,.143-.174,6.508,6.508,0,0,1,1.52-.2,12.711,12.711,0,0,1,1.951.055,3.745,3.745,0,0,1,1.516.459,1.521,1.521,0,0,1,.6.643c.6,1.231,1.2,2.458,1.788,3.692a7.532,7.532,0,0,1,.391,1.006A2.792,2.792,0,0,1,17.5,8.961a5.229,5.229,0,0,1-.828,1.692c-.446.611-.909,1.209-1.366,1.812-.02.026-.042.05-.075.089L12.553,9.181c.184-.229.367-.442.534-.667.43-.578.86-1.156,1.276-1.744a3.687,3.687,0,0,0,.466-.986" fill="#303134"/>
  </g>
</svg>
