<svg id="personal_injury_black_24dp_1_" data-name="personal_injury_black_24dp (1)" xmlns="http://www.w3.org/2000/svg" width="24" height="24" viewBox="0 0 24 24">
  <rect id="Rectangle_2377" data-name="Rectangle 2377" width="24" height="24" fill="none"/>
  <g id="Group_5098" data-name="Group 5098" transform="translate(4.027 1.743)">
    <path id="Path_1632" data-name="Path 1632" d="M8.027,6.027a4.027,4.027,0,1,1,4.027,4.027A4.026,4.026,0,0,1,8.027,6.027Zm9.061,16.109H18.1a2.02,2.02,0,0,0,2.014-2.014V15.31a2.991,2.991,0,0,0-1.621-2.678,15,15,0,0,0-1.4-.624ZM12.4,17.1l2.678-5.709a13.676,13.676,0,0,0-3.02-.332,14.129,14.129,0,0,0-6.434,1.571A2.991,2.991,0,0,0,4,15.31v6.826H6.356a3.429,3.429,0,0,1-.342-1.51A3.528,3.528,0,0,1,9.538,17.1Zm-2.356,5.034,1.42-3.02H9.538a1.51,1.51,0,0,0,0,3.02Z" transform="translate(-4 -2)" fill="#303134"/>
  </g>
</svg>
