<svg id="Group_6851" data-name="Group 6851" xmlns="http://www.w3.org/2000/svg" xmlns:xlink="http://www.w3.org/1999/xlink" width="24" height="24" viewBox="0 0 24 24">
  <defs>
    <clipPath id="clip-path">
      <rect id="Rectangle_3140" data-name="Rectangle 3140" width="24" height="24" fill="none"/>
    </clipPath>
  </defs>
  <g id="Group_6850" data-name="Group 6850" clip-path="url(#clip-path)">
    <path id="Path_2280" data-name="Path 2280" d="M6.325,9.072c.073.542.15,1.042.2,1.545a.379.379,0,0,1-.159.291,1.682,1.682,0,0,0-1,2.088,10.467,10.467,0,0,0,.213,1.269.888.888,0,0,0,.428.48.494.494,0,0,0,.456-.161c.069-.1-.014-.321-.057-.48-.032-.119-.136-.22-.158-.339-.07-.37-.123-.744-.169-1.119a1.006,1.006,0,0,1,.983-1.154c.724-.1,1.2.2,1.307.824.062.372.121.745.167,1.12.013.109-.039.226-.03.337.014.174,0,.436.1.5a.671.671,0,0,0,.527-.039.422.422,0,0,0,.206-.341A15.483,15.483,0,0,0,8.918,11.6a1.363,1.363,0,0,0-1.229-.843.444.444,0,0,1-.457-.461c-.025-.311-.078-.621-.079-.931,0-.163.065-.457.128-.465a1.044,1.044,0,0,1,.65.1,11.621,11.621,0,0,1,1.3,1,.441.441,0,0,0,.693-.014c.395-.339.815-.648,1.236-.954a.969.969,0,0,1,.417-.167c.269-.039.433.054.447.374.03.662.1,1.322.137,1.983a.754.754,0,0,1-.091.408,3.49,3.49,0,0,0,.735,4.4c.038.034.071.074.154.162-.144.054-.255.1-.367.136A3.839,3.839,0,0,0,9.9,19.355c-.177.919-.289,1.85-.4,2.78-.031.251-.08.369-.363.364q-1.523-.021-3.045,0c-.271,0-.373-.083-.357-.357a6.1,6.1,0,0,0-.008-.975.4.4,0,0,0-.258-.278,1.689,1.689,0,0,1-1.653-1.964c0-1.926-.012-3.852-.007-5.779a5.644,5.644,0,0,1,.464-2.4A3.015,3.015,0,0,1,6.325,9.072" fill="#303134"/>
    <path id="Path_2281" data-name="Path 2281" d="M10.178,22.494a14.15,14.15,0,0,1,.69-3.77,3.121,3.121,0,0,1,2.118-1.768,7.2,7.2,0,0,1,3.093-.219c.185.024.3.062.309.3a2.336,2.336,0,0,0,2.848,2.276c.076-.013.152-.022.329-.047.154,1.059.306,2.1.469,3.221-.421,0-.766.016-1.107-.013-.068-.006-.154-.178-.175-.284-.1-.524-.2-1.049-.268-1.577a.53.53,0,0,0-.708-.525c-.075.013-.153.012-.257.019.1.407.209.79.287,1.18s.116.764.178,1.181H12.171c.155-.8.3-1.573.459-2.377a4.712,4.712,0,0,1-.489,0,.3.3,0,0,0-.377.284c-.108.6-.24,1.2-.328,1.8-.036.244-.113.342-.362.326-.27-.018-.542,0-.9,0" fill="#303134"/>
    <path id="Path_2282" data-name="Path 2282" d="M12.8,4.757A3.238,3.238,0,1,1,9.638,1.5,3.223,3.223,0,0,1,12.8,4.757" fill="#303134"/>
    <path id="Path_2283" data-name="Path 2283" d="M17.864,13.4a2.771,2.771,0,1,1-5.541-.025,2.771,2.771,0,0,1,5.541.025" fill="#303134"/>
    <path id="Path_2284" data-name="Path 2284" d="M18.835,18.627a1.687,1.687,0,0,1-1.656-1.09,1.81,1.81,0,0,1,.621-1.883.726.726,0,0,1,.642-.05A8.926,8.926,0,0,1,20.026,16.9c.466.519-.106,1.529-.9,1.7a2.448,2.448,0,0,1-.286.033" fill="#303134"/>
    <path id="Path_2285" data-name="Path 2285" d="M12.9,9.021l1.6.829-1.558.7-.15-1.426.112-.1" fill="#303134"/>
  </g>
</svg>
