<svg id="Group_6853" data-name="Group 6853" xmlns="http://www.w3.org/2000/svg" xmlns:xlink="http://www.w3.org/1999/xlink" width="24" height="24" viewBox="0 0 24 24">
  <defs>
    <clipPath id="clip-path">
      <rect id="Rectangle_3141" data-name="Rectangle 3141" width="24" height="24" fill="none"/>
    </clipPath>
  </defs>
  <g id="Group_6852" data-name="Group 6852" clip-path="url(#clip-path)">
    <path id="Path_2286" data-name="Path 2286" d="M16.134,4.3H16.02v-.2c0-.129,0-.258,0-.387,0-.041.018-.06.054-.05s.058.028.058.044c0,.2,0,.394,0,.6" fill="#303134"/>
    <path id="Path_2287" data-name="Path 2287" d="M16.091,10.516a1.774,1.774,0,0,1,1.26.426.955.955,0,0,1,.2.234.251.251,0,0,1-.026.3.267.267,0,0,1-.29.1c-.219-.051-.436-.117-.658-.153a3.844,3.844,0,0,0-1.9.153,3.307,3.307,0,0,1-.673.15,1.532,1.532,0,0,1-.466-.035.5.5,0,0,1-.221-.122.3.3,0,0,1-.072-.362.445.445,0,0,1,.248-.255,3.527,3.527,0,0,1,.494-.142c.4-.082.8-.164,1.2-.227.3-.046.6-.063.9-.092v.024" fill="#303134"/>
    <path id="Path_2288" data-name="Path 2288" d="M10.416,11.739a2.628,2.628,0,0,1-.838-.17,3.922,3.922,0,0,0-2.415-.019,1.185,1.185,0,0,1-.117.031.275.275,0,0,1-.309-.378.678.678,0,0,1,.177-.232,1.875,1.875,0,0,1,1.292-.462,7.291,7.291,0,0,1,1.358.154c.333.065.666.129,1,.2a.7.7,0,0,1,.422.237.343.343,0,0,1-.1.547.961.961,0,0,1-.465.093" fill="#303134"/>
    <path id="Path_2289" data-name="Path 2289" d="M12.151,17.208a3.155,3.155,0,0,1,1.574.372,3.533,3.533,0,0,1,.368.211.482.482,0,0,1,.148.123c.032.035.016.106.011.135-.017.06-.025.071-.036.112a.372.372,0,0,1-.535.232c-.094-.043-.184-.1-.277-.14a3.032,3.032,0,0,0-2.611-.008c-.12.052-.236.117-.36.16a.364.364,0,0,1-.506-.3.311.311,0,0,1,.133-.305,1.364,1.364,0,0,1,.227-.136,4.345,4.345,0,0,1,1.864-.452" fill="#303134"/>
    <path id="Path_2290" data-name="Path 2290" d="M14.513,12.484c.316.019.632.035.948.057a2.93,2.93,0,0,0,1.646-.326.208.208,0,0,1,.236,0,.169.169,0,0,1,.069.188.326.326,0,0,1-.073.12,2.673,2.673,0,0,1-1.869.824,2.357,2.357,0,0,1-.927-.06,3.009,3.009,0,0,1-.378-.156,1.211,1.211,0,0,0-.444-.119.479.479,0,0,1-.12-.021.217.217,0,0,1-.139-.222.211.211,0,0,1,.182-.2c.221-.031.442-.054.664-.076a2,2,0,0,1,.2,0v-.007" fill="#303134"/>
    <path id="Path_2291" data-name="Path 2291" d="M9.247,13.367a3.8,3.8,0,0,1-1.5-.273,2.04,2.04,0,0,1-.672-.459c-.041-.043-.085-.08-.126-.122a.19.19,0,0,1,.221-.308,2.953,2.953,0,0,0,.783.285,4.054,4.054,0,0,0,1.127.036,5.812,5.812,0,0,1,1.485.023.971.971,0,0,1,.119.026.221.221,0,0,1-.008.427.153.153,0,0,1-.037.008,1.52,1.52,0,0,0-.649.194,1.7,1.7,0,0,1-.739.163" fill="#303134"/>
    <path id="Path_2292" data-name="Path 2292" d="M13.24,15.5a1.35,1.35,0,0,1-1.221.653,1.287,1.287,0,0,1-1.1-.652.37.37,0,0,1,.211-.572.339.339,0,0,1,.34.1c.048.045.088.1.134.145a.617.617,0,0,0,.929.023c.042-.04.079-.085.117-.129a.361.361,0,0,1,.507-.081.369.369,0,0,1,.082.514" fill="#303134"/>
    <path id="Path_2293" data-name="Path 2293" d="M14.495,8.7c.058.165.113.32.166.473l-.714.347L13.68,9.1a3.845,3.845,0,0,1,.815-.4" fill="#303134"/>
    <path id="Path_2294" data-name="Path 2294" d="M9.637,9.174,9.8,8.7a3.934,3.934,0,0,1,.816.394l-.267.425-.715-.347" fill="#303134"/>
    <path id="Path_2295" data-name="Path 2295" d="M8.855,8.989h-.8c-.012-.175-.022-.341-.034-.516a4.413,4.413,0,0,1,.9.022c-.021.171-.041.337-.06.494" fill="#303134"/>
    <path id="Path_2296" data-name="Path 2296" d="M16.247,8.989h-.8c-.019-.155-.04-.321-.063-.509l.9-.024c-.012.189-.022.356-.033.533" fill="#303134"/>
    <path id="Path_2297" data-name="Path 2297" d="M16.85,14.3a2.539,2.539,0,0,1-.8.254l-.072-.491.643-.206.227.443" fill="#303134"/>
    <path id="Path_2298" data-name="Path 2298" d="M7.676,13.855l.642.207c-.021.15-.046.318-.071.49a2.524,2.524,0,0,1-.8-.254c.08-.155.156-.305.227-.443" fill="#303134"/>
    <path id="Path_2299" data-name="Path 2299" d="M17.789,8.749l-.149.5L17.06,9.1c.035-.166.07-.33.107-.506l.622.16" fill="#303134"/>
    <path id="Path_2300" data-name="Path 2300" d="M6.658,9.244c-.049-.163-.1-.324-.15-.5l.623-.159c.036.172.071.334.107.5l-.58.15" fill="#303134"/>
    <path id="Path_2301" data-name="Path 2301" d="M17.181,13.443l.386-.431.412.313-.443.5-.355-.378" fill="#303134"/>
    <path id="Path_2302" data-name="Path 2302" d="M7.117,13.443l-.354.378-.443-.5.412-.313.385.431" fill="#303134"/>
    <path id="Path_2303" data-name="Path 2303" d="M11.38,10.46l-.4-.435.357-.373.443.48-.4.328" fill="#303134"/>
    <path id="Path_2304" data-name="Path 2304" d="M14.565,14.4l.161-.492.561.134c-.024.164-.047.328-.074.511l-.648-.153" fill="#303134"/>
    <path id="Path_2305" data-name="Path 2305" d="M12.919,10.46l-.4-.327.42-.458.39.339-.409.446" fill="#303134"/>
    <path id="Path_2306" data-name="Path 2306" d="M9.734,14.4l-.649.153c-.026-.183-.05-.347-.073-.511l.553-.132.169.49" fill="#303134"/>
    <path id="Path_2307" data-name="Path 2307" d="M18.516,9.938c.031-.043.062-.086.095-.128a.045.045,0,0,1,.03.011c0,.019.008.046,0,.056a.823.823,0,0,1-.1.081l-.027-.02" fill="#303134"/>
    <path id="Path_2308" data-name="Path 2308" d="M18.651,10a.438.438,0,0,1,0,.089c0,.015-.022.027-.034.039-.01-.014-.032-.031-.029-.043a.553.553,0,0,1,.04-.094l.025.009" fill="#303134"/>
    <path id="Path_2309" data-name="Path 2309" d="M15.851,4.069a.72.72,0,0,1,0,.093c0,.013-.021.023-.032.035-.01-.012-.032-.026-.03-.035a.76.76,0,0,1,.036-.1l.027.008" fill="#303134"/>
    <path id="Path_2310" data-name="Path 2310" d="M16.339,4.069a.311.311,0,0,1,0,.075A.222.222,0,0,1,16.3,4.2c-.009-.021-.029-.043-.026-.061a.266.266,0,0,1,.041-.073l.023.006" fill="#303134"/>
    <path id="Path_2311" data-name="Path 2311" d="M5.1,10.005a.437.437,0,0,1,0,.081c0,.016-.021.029-.032.043-.012-.017-.035-.036-.032-.05A.354.354,0,0,1,5.071,10l.026.007" fill="#303134"/>
    <path id="Path_2312" data-name="Path 2312" d="M20.754,11.113a1.39,1.39,0,0,0-1.02-.951c-.024-.008-.048-.014-.084-.024.013-.091.027-.182.039-.273a6.571,6.571,0,0,0-.143-2.787,4.894,4.894,0,0,0-.228-.618,5.514,5.514,0,0,0-.805-1.277,8.5,8.5,0,0,0-1.15-1.158c-.013-.011-.028-.021-.058-.044l-.337-.259-.014-.01a7.423,7.423,0,0,0-.852-.53c-.073-.039-.146-.076-.22-.113a9.379,9.379,0,0,0-3.1-.882c-.209-.024-.419-.04-.628-.06a.486.486,0,0,1-.066-.015h-.152l-.468.047A9.069,9.069,0,0,0,7.355,3.512,7.63,7.63,0,0,0,4.932,6a4.928,4.928,0,0,0-.644,1.964,7.427,7.427,0,0,0,.069,2.105c0,.019.006.039.009.065l-.18.058a1.389,1.389,0,0,0-.992,1.255.778.778,0,0,1-.017.081V12c.016.156.028.312.046.468a5.83,5.83,0,0,0,.622,2.06,1.918,1.918,0,0,0,1.374,1.028.146.146,0,0,1,.13.125,8.511,8.511,0,0,0,.66,1.663A10.367,10.367,0,0,0,8.1,20.188a6.427,6.427,0,0,0,2.169,1.4,4.9,4.9,0,0,0,1.385.3h.713a5.464,5.464,0,0,0,3.153-1.355A9.68,9.68,0,0,0,17.642,18a10.027,10.027,0,0,0,.965-2.109,1.811,1.811,0,0,0,.065-.234c.012-.067.046-.088.108-.1A1.943,1.943,0,0,0,20.2,14.476a5.931,5.931,0,0,0,.609-2.152c0-.027.011-.053.016-.081v-.852c-.023-.093-.041-.187-.069-.278m-1.088,1.136a4.764,4.764,0,0,1-.483,1.708.866.866,0,0,1-.747.507c-.2.019-.4.022-.6.029-.053,0-.073.019-.085.07-.089.371-.178.744-.275,1.113-.031.12-.085.233-.126.351-.02.056-.028.117-.048.173a.835.835,0,0,1-.064.122.516.516,0,0,0-.04.063,9.791,9.791,0,0,1-1.754,2.65,5.9,5.9,0,0,1-1.825,1.37,3.9,3.9,0,0,1-1.554.342,4.2,4.2,0,0,1-2.87-1.12A8.712,8.712,0,0,1,7.346,17.4,8.227,8.227,0,0,1,6.5,15.556c-.1-.322-.159-.654-.237-.982,0-.025-.012-.049-.024-.093-.158,0-.318.01-.476,0a2.424,2.424,0,0,1-.448-.075.715.715,0,0,1-.449-.383,4.731,4.731,0,0,1-.538-2.033c-.007-.146-.005-.293,0-.44a.276.276,0,0,1,.233-.281c.2-.045.4-.08.6-.119l.513-.1c-.031-.186-.06-.366-.089-.545-.009-.055-.021-.11-.027-.165a.215.215,0,0,0-.022-.084l-.1-.638a6.048,6.048,0,0,1-.021-1.509,4.171,4.171,0,0,1,.938-2.174,6.962,6.962,0,0,1,3.891-2.415A9.231,9.231,0,0,1,11.568,3.3c.127-.012.253-.021.381-.027a4.334,4.334,0,0,1,.681.049,8.313,8.313,0,0,1,2.158.524c.279.111.547.251.82.378a.843.843,0,0,1,.077.04l.1.053c.129.083.259.163.384.248a6.5,6.5,0,0,1,1.922,2,3.871,3.871,0,0,1,.5,1.512,6.034,6.034,0,0,1-.021,1.577.318.318,0,0,1,0,.034l-.085.505c-.048.291-.095.572-.143.86l.921.171c.02,0,.041.007.061.012a1.476,1.476,0,0,1,.146.035.27.27,0,0,1,.22.267c0,.238,0,.477-.018.713" fill="#303134"/>
    <path id="Path_2313" data-name="Path 2313" d="M16.969,3.722l-.016-.01h0Z" fill="#303134"/>
  </g>
</svg>
