<svg id="Group_6855" data-name="Group 6855" xmlns="http://www.w3.org/2000/svg" xmlns:xlink="http://www.w3.org/1999/xlink" width="24" height="24" viewBox="0 0 24 24">
  <defs>
    <clipPath id="clip-path">
      <rect id="Rectangle_3142" data-name="Rectangle 3142" width="24" height="24" fill="none"/>
    </clipPath>
  </defs>
  <g id="Group_6854" data-name="Group 6854" clip-path="url(#clip-path)">
    <path id="Path_2314" data-name="Path 2314" d="M21.561,3.628c.053.709.126,1.416.15,2.126.011.324-.09.651-.111.978a1.875,1.875,0,0,0,.07.512c.021.094.14.211.113.262-.34.631.247,1.254,0,1.889-.05.129.084.32.109.487.051.344.1.69.123,1.038a5.437,5.437,0,0,0,.005.745,1.4,1.4,0,0,1-.228,1.261.713.713,0,0,0-.087.528,1.25,1.25,0,0,1-.3,1.276,1.011,1.011,0,0,0-.213.578,1.462,1.462,0,0,1-.94,1.283c-.2.085-.33.323-.491.493a.1.1,0,0,0-.018.046c-.169.64-.955.473-1.21.864-.332.508-.639.8-1.265.693-.158-.026-.343.137-.521.2a10.272,10.272,0,0,1-.989.308c-.309.071-.644.046-.943.141-.609.195-1.182.328-1.691-.221a.387.387,0,0,0-.342-.088c-.068.026-.12.217-.1.32a1.039,1.039,0,0,1-.509,1.09,1.127,1.127,0,0,0-.366.575c-.089.331-.066.693-.154,1.025a.741.741,0,0,1-.351.444c-.5.224-.577.163-.7-.366-.288-1.219-.613-2.431-.862-3.659a2.391,2.391,0,0,1,.689-2.49,1.4,1.4,0,0,1,1.565-.268.917.917,0,0,0,.923-.058,1.658,1.658,0,0,1,1.524-.064.721.721,0,0,0,.568-.042,2.213,2.213,0,0,1,1.514-.307c.172.025.376-.144.561-.234.038-.018.047-.107.083-.117.649-.176.91-.782,1.333-1.2a.933.933,0,0,0,.167-.4c.1-.338.195-.678.269-1.023a1.846,1.846,0,0,0,.007-.476c-.019-.313-.045-.625-.073-.937a1.191,1.191,0,0,0-.073-.488,1.464,1.464,0,0,1-.182-1.275,1.364,1.364,0,0,0,0-.521,3.9,3.9,0,0,1-.1-.63c.024-.405.264-.811-.08-1.2-.05-.057.037-.248.082-.369a7.137,7.137,0,0,0,.292-.734c.161-.658.4-1.2,1.194-1.292a1.2,1.2,0,0,0,.589-.42c.094-.1.1-.284.139-.43a1.664,1.664,0,0,0-.546,0,8.659,8.659,0,0,0-1.144.5,1.019,1.019,0,0,0-.419.393c-.252.479-.434,1-.7,1.468a1.37,1.37,0,0,1-1.415.714.657.657,0,0,0-.472.152,1.994,1.994,0,0,1-1.623.569c-.3-.007-.6.115-.906.134-.448.029-.9.023-1.347.022A2.047,2.047,0,0,0,11.5,7.4a1.789,1.789,0,0,1-1.6-.2,3.773,3.773,0,0,0-.815-.174c-.317-.088-.625-.208-.936-.317a1.728,1.728,0,0,0-.582-.2,1.849,1.849,0,0,1-1.89-1.291.62.62,0,0,0-.334-.339A1.294,1.294,0,0,1,4.451,4.1c-.031-.1-.286-.118-.438-.174-.034.126-.139.3-.091.369a11.9,11.9,0,0,0,.785.966c.176.2.382.377.561.576.218.243.43.492.628.751.091.12.233.341.192.395-.256.342-.082.63.012.962a1.983,1.983,0,0,1-.042.773c-.018.126-.148.246-.141.364a11.264,11.264,0,0,0,.19,2.119,3.065,3.065,0,0,1,.129,1.442.98.98,0,0,0,.163.536c.159.331.355.645.511.978a5.83,5.83,0,0,0,.333.84,1.494,1.494,0,0,1-.583,2.316c-.265.136-.447.422-.691.608a4.758,4.758,0,0,1-1.193.818A1.449,1.449,0,0,1,2.8,17.513,1.806,1.806,0,0,0,2.3,16.426a1.31,1.31,0,0,1-.237-1.436,1.486,1.486,0,0,0-.085-1.134,2.561,2.561,0,0,1,.016-1.022c.011-.208.041-.416.051-.624.015-.346.023-.693.031-1.04a1.618,1.618,0,0,0-.007-.548A1.133,1.133,0,0,1,2.2,9.414a.609.609,0,0,0,.059-.487,1.489,1.489,0,0,1,.176-1.366A.707.707,0,0,0,2.45,7.03,1.015,1.015,0,0,1,2.548,6a.766.766,0,0,0,.11-.493A1.453,1.453,0,0,1,3.074,4.39a1.706,1.706,0,0,0,.4-.793,2.03,2.03,0,0,1,1.663-1.9,1.193,1.193,0,0,1,1.19.292.805.805,0,0,0,.84.26,1.206,1.206,0,0,1,1.1.426,2.726,2.726,0,0,0,.7.333c.028.013.074-.009.1.007a3.266,3.266,0,0,0,.955.6c.36.072.734-.021,1.054.278A.665.665,0,0,0,11.619,4a1.416,1.416,0,0,1,1.185.136.57.57,0,0,0,.5-.011,1.762,1.762,0,0,1,1.276-.246.617.617,0,0,0,.5-.212,1.064,1.064,0,0,1,1.167-.547.528.528,0,0,0,.426-.213,1.42,1.42,0,0,1,1.361-.73.676.676,0,0,0,.463-.256,1.276,1.276,0,0,1,1.216-.509,1.841,1.841,0,0,1,1.848,2.219" fill="#303134"/>
  </g>
</svg>
