<svg id="Group_6857" data-name="Group 6857" xmlns="http://www.w3.org/2000/svg" xmlns:xlink="http://www.w3.org/1999/xlink" width="24" height="24" viewBox="0 0 24 24">
  <defs>
    <clipPath id="clip-path">
      <rect id="Rectangle_3143" data-name="Rectangle 3143" width="24" height="24" fill="none"/>
    </clipPath>
  </defs>
  <g id="Group_6856" data-name="Group 6856" clip-path="url(#clip-path)">
    <path id="Path_2315" data-name="Path 2315" d="M17.081,13.715a2.411,2.411,0,0,1,.476.326c.753.836,1.506,1.673,2.228,2.536.339.406.3.8-.01,1.036-.33.252-.71.148-1.041-.283-.184-.24-.37-.48-.62-.805-.091.472-.146.835-.233,1.191-.113.466-.429.7-.792.607s-.518-.417-.473-.891a18.349,18.349,0,0,0,.1-2.043,1.078,1.078,0,0,0-.33-.663,18.452,18.452,0,0,0-4.19-2.781.492.492,0,0,0-.4,0A17.2,17.2,0,0,0,7.6,14.725a1.1,1.1,0,0,0-.325.664,16.433,16.433,0,0,0,.09,2c.052.514-.078.844-.466.938s-.68-.154-.8-.658c-.043-.174-.07-.352-.1-.529-.029-.159-.053-.319-.106-.633l-.641.835c-.321.417-.67.521-1,.3s-.391-.641-.035-1.065c.744-.887,1.522-1.745,2.3-2.6a1.674,1.674,0,0,1,.411-.251c-.041-.049-.083-.1-.125-.146-.514-.065-1.03-.114-1.54-.2-.482-.081-.7-.371-.634-.765s.376-.6.858-.494a5.778,5.778,0,0,0,4.45-1.01,2.214,2.214,0,0,0,1.2-2.266c-.1-2.185-.031-4.377-.029-6.565,0-.569.225-.762.872-.768.669-.006.909.2.91.779,0,2.5.009,5-.007,7.5a.788.788,0,0,0,.429.792c.41.235.794.515,1.187.78a4.96,4.96,0,0,0,3.878.776,2.193,2.193,0,0,1,.291-.042.6.6,0,0,1,.7.533.571.571,0,0,1-.455.706c-.412.1-.837.131-1.257.189-.154.021-.309.029-.463.043l-.11.162" fill="#303134"/>
    <path id="Path_2316" data-name="Path 2316" d="M15.272,10.679c-.571-.381-1.023-.67-1.457-.984a.435.435,0,0,1-.154-.329A17.078,17.078,0,0,1,13.922,6.7,1.7,1.7,0,0,1,16.36,5.394a6.743,6.743,0,0,1,3.364,2.581,13.823,13.823,0,0,1,2.257,5.893,41.786,41.786,0,0,1,.518,7.369.845.845,0,0,1-.722.905,11.24,11.24,0,0,1-4.083.282,3.76,3.76,0,0,1-3.008-2.166,9.36,9.36,0,0,1-.9-3.437c-.091-.921-.111-1.85-.163-2.775l.133-.1c.488.362.989.707,1.453,1.1.1.087.075.334.1.508a28.729,28.729,0,0,0,.534,3.126c.471,1.683,1.226,2.188,2.96,2.177a13.342,13.342,0,0,0,1.706-.135.5.5,0,0,0,.334-.343,25.318,25.318,0,0,0-1.4-9.582,7.16,7.16,0,0,0-2.949-3.616c-.862-.518-1.136-.4-1.187.587-.039.75-.025,1.5-.034,2.253,0,.175,0,.35,0,.656" fill="#303134"/>
    <path id="Path_2317" data-name="Path 2317" d="M8.706,10.688c0-1.007.029-1.871-.014-2.732a4.625,4.625,0,0,0-.3-1.036,5.1,5.1,0,0,0-1.019.359,7.581,7.581,0,0,0-3.138,4.355,26.5,26.5,0,0,0-1.1,8.023c-.019,1.09-.015,1.1,1.079,1.17.488.032.979.028,1.468.025A2.305,2.305,0,0,0,7.9,19.363a7.8,7.8,0,0,0,.727-3.277,1.758,1.758,0,0,1,1.006-1.719c.209-.114.4-.255.74-.471-.053,1.019-.067,1.907-.152,2.788a9,9,0,0,1-1.09,3.88,3.7,3.7,0,0,1-2.842,1.861,11.261,11.261,0,0,1-4.083-.287.8.8,0,0,1-.705-.815A34.275,34.275,0,0,1,2.509,11.71,11,11,0,0,1,4.638,7.5a7,7,0,0,1,2.682-2c1.464-.6,2.5-.1,2.824,1.452a15.952,15.952,0,0,1,.187,2.431.44.44,0,0,1-.165.323c-.434.312-.885.6-1.46.985" fill="#303134"/>
  </g>
</svg>
