<svg id="Group_6859" data-name="Group 6859" xmlns="http://www.w3.org/2000/svg" xmlns:xlink="http://www.w3.org/1999/xlink" width="24" height="24" viewBox="0 0 24 24">
  <defs>
    <clipPath id="clip-path">
      <rect id="Rectangle_3144" data-name="Rectangle 3144" width="24" height="24" fill="none"/>
    </clipPath>
  </defs>
  <g id="Group_6858" data-name="Group 6858" clip-path="url(#clip-path)">
    <path id="Path_2318" data-name="Path 2318" d="M11.984,22.53q-2.535,0-5.069,0a1.866,1.866,0,0,1-1.954-1.937c0-.382-.025-.765.007-1.145a3,3,0,0,1,.193-.853.352.352,0,0,0-.077-.464,9.59,9.59,0,0,1-2.712-5.162A9.792,9.792,0,0,1,6.541,3.128a9.381,9.381,0,0,1,5.65-1.651,9.331,9.331,0,0,1,8.25,4.945,9.451,9.451,0,0,1-.623,10.626,9.848,9.848,0,0,1-.958,1.1.324.324,0,0,0-.079.416,3.109,3.109,0,0,1,.209.878c.035.4.012.8.008,1.2a1.857,1.857,0,0,1-1.887,1.887c-1.709.005-3.418,0-5.127,0m5.944-5.546a8.169,8.169,0,0,0,1.928-8.41A8.313,8.313,0,0,0,3.832,9.587,8.146,8.146,0,0,0,4.4,14.652a7.681,7.681,0,0,0,1.618,2.356c.425-.767.809-1.5,1.237-2.211a.7.7,0,0,0-.051-.914,4.427,4.427,0,0,1-.468-4.635,4.348,4.348,0,0,1,3.652-2.682,22.336,22.336,0,0,1,2.6-.057,4.664,4.664,0,0,1,4,7.04c-.164.28-.467.555-.468.832,0,.293.283.587.445.879.317.573.635,1.145.957,1.724m-5.956-3.839c1.088,0,2.176-.007,3.264,0A.483.483,0,0,0,15.7,12.9,3.188,3.188,0,0,0,13.639,8.05a14.989,14.989,0,0,0-2.883-.068A2.97,2.97,0,0,0,8.14,9.666a3.12,3.12,0,0,0,.113,3.218.489.489,0,0,0,.484.267c1.078-.013,2.157-.006,3.235-.006M11.959,21.1q2.505,0,5.008,0c.431,0,.59-.159.594-.586,0-.333,0-.667,0-1,0-.362-.171-.535-.523-.535q-5.051,0-10.1,0c-.367,0-.532.175-.537.552,0,.305,0,.61,0,.916,0,.519.138.654.669.654q2.446,0,4.893,0m4.559-3.585a.563.563,0,0,0-.028-.117c-.487-.885-.972-1.773-1.472-2.651a.394.394,0,0,0-.3-.151c-1.822-.009-3.645,0-5.468-.01A.357.357,0,0,0,8.9,14.8c-.338.63-.691,1.252-1.037,1.878-.145.264-.287.529-.451.832Z" fill="#303134"/>
  </g>
</svg>
