<svg id="Group_6867" data-name="Group 6867" xmlns="http://www.w3.org/2000/svg" xmlns:xlink="http://www.w3.org/1999/xlink" width="24" height="24" viewBox="0 0 24 24">
  <defs>
    <clipPath id="clip-path">
      <rect id="Rectangle_3148" data-name="Rectangle 3148" width="24" height="24" fill="none"/>
    </clipPath>
  </defs>
  <g id="Group_6866" data-name="Group 6866" clip-path="url(#clip-path)">
    <path id="Path_2327" data-name="Path 2327" d="M12,22.3c-1.191,0-2.383.04-3.569-.026a3.019,3.019,0,0,1-1.066-.523,3.664,3.664,0,0,0-.532-.325A1.558,1.558,0,0,1,5.594,19.8c-.008-.531.1-1.066.076-1.6a1.191,1.191,0,0,0-.328-.71A9.319,9.319,0,1,1,20.649,7.453a9.217,9.217,0,0,1-2.014,10.031.9.9,0,0,0-.3.926,8.4,8.4,0,0,1,.044,1.665,1.291,1.291,0,0,1-.152.508,5.224,5.224,0,0,1-2.8,1.715H12M6.331,16.971C6.876,16,7.4,15.015,7.971,14.059a.873.873,0,0,0-.035-1.076A3.55,3.55,0,0,1,7.8,9.112,3.64,3.64,0,0,1,11.1,7.159c.539-.007,1.078,0,1.617,0a3.677,3.677,0,0,1,3.489,1.989,3.663,3.663,0,0,1-.221,3.993c-.1.15-.212.406-.15.524.591,1.117,1.217,2.216,1.839,3.329,2.363-1.772,3.341-5.668,2.249-8.734a8.4,8.4,0,0,0-16.011.472c-.849,2.962.264,6.835,2.414,8.243M12,20.494v0h4.448c.854,0,1.015-.158,1.027-1.018,0-.2,0-.4,0-.6a.682.682,0,0,0-.748-.756q-4.718,0-9.436,0a.687.687,0,0,0-.758.748c-.011.222-.009.446,0,.669.019.78.182.948.956.951,1.505.006,3.011,0,4.516,0m4.659-3.353c-.589-1.049-1.1-1.988-1.647-2.9a.771.771,0,0,0-.574-.225c-1.617-.018-3.234-.015-4.85,0-.188,0-.474.036-.546.156-.571.944-1.1,1.914-1.7,2.971Z" fill="#303134"/>
  </g>
</svg>
