<svg id="Group_6863" data-name="Group 6863" xmlns="http://www.w3.org/2000/svg" xmlns:xlink="http://www.w3.org/1999/xlink" width="24" height="24" viewBox="0 0 24 24">
  <defs>
    <clipPath id="clip-path">
      <rect id="Rectangle_3146" data-name="Rectangle 3146" width="24" height="24" fill="none"/>
    </clipPath>
  </defs>
  <g id="Group_6862" data-name="Group 6862" clip-path="url(#clip-path)">
    <path id="Path_2322" data-name="Path 2322" d="M7.708,20.74h-.6c-.152-.061-.3-.118-.455-.184a1.822,1.822,0,0,1-1.03-2.176,1.85,1.85,0,0,1,2.021-1.317,1.817,1.817,0,0,1,1.566,1.825A1.924,1.924,0,0,1,7.708,20.74" fill="#303134"/>
    <path id="Path_2323" data-name="Path 2323" d="M2.519,5.383a2.1,2.1,0,1,1,4.193-.041,2.1,2.1,0,1,1-4.193.041" fill="#303134"/>
    <path id="Path_2324" data-name="Path 2324" d="M20.362,18.273l-4.279.007H15.5c.361-1.376.653-2.687,1.052-3.964a3.169,3.169,0,0,0-.721-3.267,29.628,29.628,0,0,0-4.924-4.471,6,6,0,0,0-1.679-.839A1.847,1.847,0,0,0,6.6,7.693q-.009,4.056-.011,8.111v.513a6.084,6.084,0,0,0-4.459,2.93c-.725,1.553,1,1.494,1,1.494H5.916a2.368,2.368,0,1,1,3.368-3.274A2.34,2.34,0,0,1,9.191,20.4l-.288.339h2.688a1.2,1.2,0,0,0,.565-1.96,5.677,5.677,0,0,0-2.934-2.112c-.169-.062-.344-.109-.587-.186.3-1.656.6-3.308.917-5.041.351.189.664.353.973.525.608.337,1.208.692,1.825,1.012a.565.565,0,0,1,.334.588c-.008,1.856.025,3.714-.007,5.57a1.553,1.553,0,0,0,.9,1.6H21.05a1.561,1.561,0,0,0,1-1.195v-.1c-.371-.994-.629-1.174-1.683-1.173" fill="#303134"/>
  </g>
</svg>
