<svg id="Group_6861" data-name="Group 6861" xmlns="http://www.w3.org/2000/svg" xmlns:xlink="http://www.w3.org/1999/xlink" width="24" height="24" viewBox="0 0 24 24">
  <defs>
    <clipPath id="clip-path">
      <rect id="Rectangle_3145" data-name="Rectangle 3145" width="24" height="24" fill="none"/>
    </clipPath>
  </defs>
  <g id="Group_6860" data-name="Group 6860" clip-path="url(#clip-path)">
    <path id="Path_2319" data-name="Path 2319" d="M22.1,12.71c-.245.631-.806.48-1.316.505v.265q0,3.827,0,7.654a1.945,1.945,0,0,1-.018.315A.651.651,0,0,1,19.5,21.5a1.417,1.417,0,0,1-.032-.332q0-3.848,0-7.694v-.26h-2.4V11.887h.217c1.321,0,2.643.007,3.965-.005a.8.8,0,0,1,.856.512Z" fill="#303134"/>
    <path id="Path_2320" data-name="Path 2320" d="M3.211,13.2a6.633,6.633,0,0,1-.749-.005A.644.644,0,0,1,2,12.2a.706.706,0,0,1,.659-.318c1.118,0,2.237-.02,3.354.011a1.228,1.228,0,0,0,1.06-.433c.693-.764,1.45-1.47,2.177-2.2a1.205,1.205,0,0,0,.216-.3c.348-.693.679-1.394,1.039-2.08a2.171,2.171,0,0,1,.471-.623,1.241,1.241,0,0,1,1.618,0,6.18,6.18,0,0,1,1.764,1.837A8.121,8.121,0,0,1,15.7,11.859c.044.47.037.946.038,1.42q0,3.63,0,7.262a1.349,1.349,0,0,1-.723,1.3,1.313,1.313,0,0,1-1.9-1.043c-.008-.1-.008-.211-.008-.316q0-3.5,0-7v-.256c-.081,0-.15-.013-.219-.013-1.223,0-2.447,0-3.67.005a.539.539,0,0,0-.31.122,1.9,1.9,0,0,1-1.082.518,1.188,1.188,0,0,1-1.033-.51c-.045-.056-.116-.128-.176-.129-.683-.009-1.366,0-2.076,0v.263q0,3.849,0,7.7A1.477,1.477,0,0,1,4.5,21.5a.652.652,0,0,1-1.272-.052,2.053,2.053,0,0,1-.018-.314q0-3.819,0-7.637Zm7.137-1.323h2.7a10.605,10.605,0,0,0-.764-2.4,8.25,8.25,0,0,1-1.932,2.4" fill="#303134"/>
    <path id="Path_2321" data-name="Path 2321" d="M10.9,3.984A1.975,1.975,0,1,1,8.931,2.009,1.994,1.994,0,0,1,10.9,3.984" fill="#303134"/>
  </g>
</svg>
