<svg id="Group_6865" data-name="Group 6865" xmlns="http://www.w3.org/2000/svg" xmlns:xlink="http://www.w3.org/1999/xlink" width="24" height="24" viewBox="0 0 24 24">
  <defs>
    <clipPath id="clip-path">
      <rect id="Rectangle_3147" data-name="Rectangle 3147" width="24" height="24" fill="none"/>
    </clipPath>
  </defs>
  <g id="Group_6864" data-name="Group 6864" clip-path="url(#clip-path)">
    <path id="Path_2325" data-name="Path 2325" d="M10.92,13.122a2.586,2.586,0,0,0-1.294-1.98,2.63,2.63,0,0,0-3.039.356,1.529,1.529,0,0,0-.221,2.148A1.6,1.6,0,0,1,6.2,15.567L2.146,20.01a.275.275,0,0,0-.021.025h0c-.106.142-.517.848.759,2,1.434,1.294,2.254.207,2.254.207l3.884-4.248a1.594,1.594,0,0,1,1.8-.394c1.029.431,2.52.585,2.535-2.08a2.3,2.3,0,0,0-.743-1.762,2.582,2.582,0,0,0-1.7-.636" fill="#303134"/>
    <path id="Path_2326" data-name="Path 2326" d="M13.08,10.878a2.586,2.586,0,0,0,1.294,1.98,2.63,2.63,0,0,0,3.039-.356,1.529,1.529,0,0,0,.221-2.148A1.6,1.6,0,0,1,17.8,8.433L21.854,3.99a.276.276,0,0,0,.021-.025h0c.106-.142.517-.848-.759-2-1.434-1.294-2.254-.207-2.254-.207L14.979,6.006a1.594,1.594,0,0,1-1.8.394c-1.029-.431-2.52-.585-2.535,2.08a2.3,2.3,0,0,0,.743,1.762,2.582,2.582,0,0,0,1.7.636" fill="#303134"/>
  </g>
</svg>
