<svg id="Group_6809" data-name="Group 6809" xmlns="http://www.w3.org/2000/svg" xmlns:xlink="http://www.w3.org/1999/xlink" width="24" height="24" viewBox="0 0 24 24">
  <defs>
    <clipPath id="clip-path">
      <rect id="Rectangle_3119" data-name="Rectangle 3119" width="24" height="24" fill="#303134"/>
    </clipPath>
  </defs>
  <g id="Group_6808" data-name="Group 6808" clip-path="url(#clip-path)">
    <path id="Path_2186" data-name="Path 2186" d="M10.074,17.377a.088.088,0,0,0-.1-.07c-.359.011-.718.018-1.077.026h-.15a.082.082,0,0,0-.079.106h0c.144.5.311.993.427,1.5a4.231,4.231,0,0,1-.378,3.132.461.461,0,0,0,.144.607c.148.107.3.207.449.306A.08.08,0,0,0,9.354,23l.25,0h0a.644.644,0,0,0,.32-.3,5.273,5.273,0,0,0,.657-2.527,8.93,8.93,0,0,0-.5-2.789" fill="#303134"/>
    <path id="Path_2187" data-name="Path 2187" d="M9.354,23.123H8.987l.184-.078-.04-.027c-.116-.078-.233-.156-.347-.238A.585.585,0,0,1,8.6,22.01a4.086,4.086,0,0,0,.365-3.042c-.078-.342-.183-.686-.283-1.018q-.074-.237-.142-.476a.2.2,0,0,1,.032-.182.285.285,0,0,1,.243-.083h.071l1.076-.025a.214.214,0,0,1,.226.156,9.172,9.172,0,0,1,.508,2.828,5.393,5.393,0,0,1-.672,2.586.758.758,0,0,1-.38.359L9.6,23.006v.116ZM8.8,17.459c.04.138.082.275.124.413.1.338.209.688.29,1.04a4.324,4.324,0,0,1-.391,3.221.333.333,0,0,0,.108.443c.111.081.226.157.338.233l.108.072.194-.008a.525.525,0,0,0,.239-.241,5.156,5.156,0,0,0,.641-2.467,8.917,8.917,0,0,0-.49-2.731L8.9,17.458H8.8m1.274-.082-.121.032,0,0Z" fill="#303134"/>
    <path id="Path_2188" data-name="Path 2188" d="M21.405,5.995a2.589,2.589,0,0,1-.711.825,5.574,5.574,0,0,1-2.635,1.263,13.659,13.659,0,0,1-2.471.234c-.663.017-1.327.024-1.99.054a6.8,6.8,0,0,0-2.247.421A4.161,4.161,0,0,0,8.79,13.023a9.865,9.865,0,0,0,.528,2.2c.015.044.029.089.051.16-.2,0-.385,0-.57,0-.257,0-.513.008-.77.017-.056,0-.087-.011-.105-.067a9.275,9.275,0,0,1-.5-2.8,5.493,5.493,0,0,1,4-5.189,10.014,10.014,0,0,1,2.268-.333c.773-.029,1.547-.039,2.32-.063A8.412,8.412,0,0,0,18.4,6.6,3.955,3.955,0,0,0,20.187,5.41a.489.489,0,0,1,.742-.091c.046.031.089.066.136.093a.713.713,0,0,1,.34.385Z" fill="#303134"/>
    <path id="Path_2189" data-name="Path 2189" d="M8.02,15.522a.206.206,0,0,1-.216-.155,9.243,9.243,0,0,1-.51-2.838A5.61,5.61,0,0,1,11.389,7.22a10.166,10.166,0,0,1,2.3-.338c.435-.015.871-.026,1.307-.037.338-.008.675-.015,1.013-.026a8.343,8.343,0,0,0,2.35-.341,3.84,3.84,0,0,0,1.736-1.15A.616.616,0,0,1,21,5.216l.045.033c.027.019.054.039.082.055a.831.831,0,0,1,.395.452l.007.041-.011.25a2.552,2.552,0,0,1-.691.822l-.051.045a5.665,5.665,0,0,1-2.692,1.292,14.028,14.028,0,0,1-2.494.236c-.214.006-.429.01-.644.015-.448.009-.9.019-1.343.039a6.579,6.579,0,0,0-2.207.412,4.059,4.059,0,0,0-2.483,4.1,9.9,9.9,0,0,0,.522,2.169l.1.325H9.2c-.136,0-.267,0-.4,0-.256,0-.512.008-.767.017ZM20.584,5.315a.414.414,0,0,0-.3.177,4.083,4.083,0,0,1-1.847,1.224,8.578,8.578,0,0,1-2.42.353c-.338.011-.677.018-1.015.026-.435.011-.87.022-1.3.037a9.906,9.906,0,0,0-2.24.329,5.357,5.357,0,0,0-3.91,5.068,8.955,8.955,0,0,0,.492,2.742c.261-.008.511-.013.76-.016.132,0,.263,0,.4,0a10.112,10.112,0,0,1-.533-2.218A4.316,4.316,0,0,1,11.3,8.675a6.8,6.8,0,0,1,2.288-.429c.449-.02.9-.03,1.349-.039.214,0,.429-.009.643-.015a13.719,13.719,0,0,0,2.448-.231A5.423,5.423,0,0,0,20.61,6.727l.051-.045a2.4,2.4,0,0,0,.618-.714V5.82a.589.589,0,0,0-.278-.3c-.035-.021-.069-.046-.1-.07l-.04-.03a.5.5,0,0,0-.273-.106" fill="#303134"/>
    <path id="Path_2190" data-name="Path 2190" d="M2.6,18.007a2.425,2.425,0,0,1,.654-.773,5.56,5.56,0,0,1,2.692-1.315,14.773,14.773,0,0,1,2.647-.239c.714-.019,1.429-.03,2.143-.073a5.668,5.668,0,0,0,2.337-.59,4.182,4.182,0,0,0,2.144-4.027,9.941,9.941,0,0,0-.53-2.206c-.015-.045-.029-.09-.046-.143.036,0,.064-.007.092-.008.41-.009.821-.016,1.231-.026.055,0,.1,0,.117.065a9.326,9.326,0,0,1,.5,2.779,5.489,5.489,0,0,1-4.1,5.237,9.8,9.8,0,0,1-2.063.3c-.8.033-1.605.044-2.408.068a8.97,8.97,0,0,0-2.229.292,3.991,3.991,0,0,0-1.991,1.268.478.478,0,0,1-.685.091c-.058-.039-.113-.082-.172-.118A.721.721,0,0,1,2.6,18.2Z" fill="#303134"/>
    <path id="Path_2191" data-name="Path 2191" d="M3.414,18.938a.677.677,0,0,1-.377-.126l-.07-.05c-.032-.022-.064-.046-.1-.066a.838.838,0,0,1-.393-.451L2.47,18.2l.011-.248A2.285,2.285,0,0,1,3.1,17.2l.063-.057A5.646,5.646,0,0,1,5.916,15.8a14.764,14.764,0,0,1,2.668-.241l.46-.012c.551-.013,1.121-.027,1.679-.061a5.481,5.481,0,0,0,2.287-.576A4.054,4.054,0,0,0,15.088,11a9.862,9.862,0,0,0-.524-2.178l-.1-.29.154-.017a.951.951,0,0,1,.1-.009l1.229-.026a.216.216,0,0,1,.239.151A9.336,9.336,0,0,1,16.7,11.45a5.6,5.6,0,0,1-4.191,5.359,10.075,10.075,0,0,1-2.089.305c-.5.02-1,.032-1.5.045-.3.006-.607.013-.91.023a8.952,8.952,0,0,0-2.2.286A3.893,3.893,0,0,0,3.887,18.7a.62.62,0,0,1-.473.24m-.694-.756a.6.6,0,0,0,.279.3c.04.024.077.051.114.077l.064.046a.357.357,0,0,0,.52-.069,4.138,4.138,0,0,1,2.052-1.308,9.191,9.191,0,0,1,2.259-.3q.456-.013.912-.023c.5-.013,1-.025,1.494-.045a9.766,9.766,0,0,0,2.037-.3,5.349,5.349,0,0,0,4-5.115,9.06,9.06,0,0,0-.49-2.72l-1.16.024a10.088,10.088,0,0,1,.532,2.221,4.308,4.308,0,0,1-2.211,4.149,5.712,5.712,0,0,1-2.387.606c-.563.033-1.136.048-1.689.061l-.459.012a14.568,14.568,0,0,0-2.624.235,5.422,5.422,0,0,0-2.633,1.286l-.063.057a2.139,2.139,0,0,0-.551.651Z" fill="#303134"/>
    <path id="Path_2192" data-name="Path 2192" d="M14.629,1c.161.1.325.194.482.3a.472.472,0,0,1,.158.663,3.993,3.993,0,0,0-.445,1.281,4.807,4.807,0,0,0,.1,1.918c.113.458.261.908.394,1.36.012.042.026.083.042.132-.042,0-.074.007-.106.008-.41.01-.821.017-1.231.03a.087.087,0,0,1-.1-.069,9.015,9.015,0,0,1-.5-2.767,5.286,5.286,0,0,1,.645-2.529A.684.684,0,0,1,14.431,1Z" fill="#303134"/>
    <path id="Path_2193" data-name="Path 2193" d="M14.019,6.819a.2.2,0,0,1-.212-.156A9.224,9.224,0,0,1,13.3,3.858a5.42,5.42,0,0,1,.66-2.588.8.8,0,0,1,.428-.385l.045-.009h.233l.178.109c.114.07.228.139.339.213a.6.6,0,0,1,.2.826,3.822,3.822,0,0,0-.431,1.241,4.645,4.645,0,0,0,.1,1.87c.078.316.176.636.27.945.041.136.083.272.123.409.008.028.016.053.025.08l.064.2-.2.015-.065,0-.412.01-.82.02Zm.436-5.693a.551.551,0,0,0-.277.263,5.173,5.173,0,0,0-.63,2.469,8.936,8.936,0,0,0,.491,2.709c.275-.005.541-.011.806-.018l.352-.008c-.037-.128-.077-.259-.117-.388-.094-.312-.193-.635-.273-.959A4.893,4.893,0,0,1,14.7,3.226a4.068,4.068,0,0,1,.458-1.32.349.349,0,0,0-.119-.5c-.106-.073-.217-.139-.328-.208l-.118-.072Z" fill="#303134"/>
    <path id="Path_2194" data-name="Path 2194" d="M9.53,10.573l.262-.376,4.677,3.231-.261.377L9.53,10.573" fill="#303134"/>
    <path id="Path_2195" data-name="Path 2195" d="M14.241,13.979,9.357,10.6l.4-.581L14.643,13.4ZM9.7,10.542l4.472,3.09.119-.172L9.824,10.37Z" fill="#303134"/>
    <path id="Path_2196" data-name="Path 2196" d="M4.3,18.357c.125-.1.229-.247.35-.262s.236.111.347.187Q6.916,19.6,8.834,20.927a.156.156,0,0,1,.074.215c-.039.1-.069.207-.107.323L4.3,18.357" fill="#303134"/>
    <path id="Path_2197" data-name="Path 2197" d="M8.868,21.663l-4.776-3.3.13-.1a1.347,1.347,0,0,0,.1-.095.584.584,0,0,1,.309-.2A.562.562,0,0,1,5,18.126l.072.053,1.612,1.112q1.113.768,2.224,1.533a.276.276,0,0,1,.119.362c-.026.068-.047.137-.069.211ZM4.5,18.343l4.231,2.923c.019-.059.038-.115.059-.17a.119.119,0,0,0,.008-.034.151.151,0,0,0-.036-.032Q7.649,20.265,6.54,19.5L4.927,18.384l-.081-.059a.578.578,0,0,0-.178-.107h0c-.043,0-.109.068-.166.125" fill="#303134"/>
    <path id="Path_2198" data-name="Path 2198" d="M19.7,5.649c-.1.084-.195.151-.28.226a.138.138,0,0,1-.2.005Q18.018,5.038,16.805,4.2c-.551-.38-1.1-.763-1.655-1.14a.132.132,0,0,1-.063-.18c.041-.11.072-.222.111-.347L19.7,5.649" fill="#303134"/>
    <path id="Path_2199" data-name="Path 2199" d="M19.327,6.045a.3.3,0,0,1-.173-.063q-.85-.591-1.7-1.181l-1.061-.733c-.436-.3-.872-.6-1.31-.9a.251.251,0,0,1-.109-.328c.026-.07.047-.141.07-.216l.09-.284,4.784,3.3-.218.172c-.068.054-.13.1-.19.154a.275.275,0,0,1-.179.076m-4.06-3.309c-.02.066-.04.129-.063.19-.01.013,0,.02.016.034q.657.449,1.311.9l1.061.732q.854.591,1.705,1.182a.115.115,0,0,0,.032.018c.059-.053.111-.1.165-.138Z" fill="#303134"/>
    <path id="Path_2200" data-name="Path 2200" d="M14.994,12.068c-1.38-.952-2.741-1.893-4.123-2.848.157-.076.3-.149.437-.211.028-.012.081.014.114.036l2.551,1.762c.332.228.662.46,1,.686a.141.141,0,0,1,.074.153c-.018.132-.031.265-.049.422" fill="#303134"/>
    <path id="Path_2201" data-name="Path 2201" d="M15.1,12.291,10.624,9.2l.311-.152c.112-.057.216-.109.324-.154a.252.252,0,0,1,.232.046q1.278.88,2.553,1.763l.3.209c.23.159.46.319.692.476a.26.26,0,0,1,.127.272c-.012.093-.022.187-.034.288ZM11.116,9.238l3.776,2.61c.009-.076.017-.148.026-.219L14.9,11.6c-.233-.158-.464-.318-.694-.477l-.3-.21q-1.275-.882-2.552-1.762l-.02-.01c-.072.031-.142.064-.214.1m.243-.113h0" fill="#303134"/>
    <path id="Path_2202" data-name="Path 2202" d="M13.115,14.772l-.022.021c-.133.068-.268.189-.4.188s-.257-.124-.377-.207q-1.639-1.128-3.276-2.258a.159.159,0,0,1-.081-.171c.019-.127.03-.255.048-.411l4.109,2.838" fill="#303134"/>
    <path id="Path_2203" data-name="Path 2203" d="M12.693,15.106h0a.682.682,0,0,1-.374-.176c-.025-.018-.049-.037-.074-.053L8.968,12.618a.277.277,0,0,1-.133-.292c.012-.085.021-.172.031-.268l.038-.345,4.409,3.045-.113.1-.085-.091.073.1-.033.026c-.043.022-.08.046-.117.069a.67.67,0,0,1-.345.136M9.107,12.157c-.007.071-.016.139-.025.206,0,.025,0,.027.028.049l3.275,2.26c.027.017.054.038.081.058a.543.543,0,0,0,.228.126.459.459,0,0,0,.195-.088Z" fill="#303134"/>
    <path id="Path_2204" data-name="Path 2204" d="M6.27,17.409c.2-.029.389-.061.584-.085a.171.171,0,0,1,.109.037q.914.627,1.824,1.26a.178.178,0,0,1,.071.09,4.085,4.085,0,0,1,.1.584L6.27,17.437v-.028" fill="#303134"/>
    <path id="Path_2205" data-name="Path 2205" d="M9.11,19.551,6.145,17.5V17.33l.106-.044.161-.024c.142-.022.284-.044.426-.062a.319.319,0,0,1,.2.059q.912.628,1.824,1.26a.312.312,0,0,1,.122.163,4.423,4.423,0,0,1,.105.6Zm-2.543-2.06L8.8,19.032c-.016-.091-.036-.186-.062-.291,0,0-.005-.006-.022-.018q-.907-.63-1.822-1.259a.144.144,0,0,0-.032-.016c-.094.013-.193.027-.293.043" fill="#303134"/>
    <path id="Path_2206" data-name="Path 2206" d="M15.012,4.688,17.73,6.565v.029c-.206.029-.412.061-.619.086-.023,0-.052-.022-.076-.038q-.909-.627-1.817-1.258a.218.218,0,0,1-.082-.118c-.045-.181-.08-.364-.125-.578" fill="#303134"/>
    <path id="Path_2207" data-name="Path 2207" d="M17.109,6.8a.228.228,0,0,1-.136-.056c-.614-.424-1.221-.842-1.825-1.262a.352.352,0,0,1-.133-.193c-.032-.131-.059-.264-.089-.408l-.1-.48.259.179L17.8,6.462l.053.037v.174l-.107.044-.177.025c-.147.022-.3.043-.443.062h-.019M15.2,4.968c.02.092.039.18.061.267a.092.092,0,0,0,.032.046q.906.632,1.816,1.257l.02.014c.1-.013.2-.027.3-.042C16.694,6,15.954,5.489,15.2,4.968" fill="#303134"/>
    <path id="Path_2208" data-name="Path 2208" d="M9.264,14.391l1.474,1.018-.007.023c-.225.013-.45.027-.675.036a.157.157,0,0,1-.088-.036q-.228-.153-.453-.312a.171.171,0,0,1-.063-.071c-.071-.214-.139-.43-.207-.644l.019-.014" fill="#303134"/>
    <path id="Path_2209" data-name="Path 2209" d="M10.054,15.593a.276.276,0,0,1-.157-.058c-.152-.1-.3-.207-.454-.314a.26.26,0,0,1-.109-.134c-.054-.158-.1-.317-.155-.476L9.1,14.349l.153-.1.087.034,1.549,1.07-.053.17-.093.028c-.229.014-.453.027-.677.037Zm-.59-.912c.035.109.07.219.107.327.165.115.315.218.466.32a.109.109,0,0,0,.028.016l.333-.018Z" fill="#303134"/>
    <path id="Path_2210" data-name="Path 2210" d="M13.27,8.57c.219-.013.437-.027.656-.036a.186.186,0,0,1,.1.033c.1.063.189.142.291.2a.585.585,0,0,1,.311.422c.032.139.082.273.107.425L13.263,8.594l.007-.024" fill="#303134"/>
    <path id="Path_2211" data-name="Path 2211" d="M14.907,9.882,13.116,8.645l.053-.171.094-.028.161-.01c.166-.01.331-.019.5-.026a.474.474,0,0,1,.172.052c.04.026.078.054.118.083a1.268,1.268,0,0,0,.163.107.714.714,0,0,1,.375.507c.012.053.028.1.042.157a2.256,2.256,0,0,1,.066.275ZM13.6,8.676l.932.644c-.011-.035-.019-.07-.029-.106a.467.467,0,0,0-.247-.34,1.422,1.422,0,0,1-.195-.128,1.106,1.106,0,0,0-.106-.073c-.126-.006-.244,0-.355,0m-.332-.1.007,0Z" fill="#303134"/>
  </g>
</svg>
