<svg id="Group_6827" data-name="Group 6827" xmlns="http://www.w3.org/2000/svg" xmlns:xlink="http://www.w3.org/1999/xlink" width="24" height="24" viewBox="0 0 24 24">
  <defs>
    <clipPath id="clip-path">
      <rect id="Rectangle_3128" data-name="Rectangle 3128" width="24" height="24" fill="none"/>
    </clipPath>
  </defs>
  <g id="Group_6826" data-name="Group 6826" clip-path="url(#clip-path)">
    <path id="Path_2237" data-name="Path 2237" d="M16,4a2,2,0,1,1,2,2,1.993,1.993,0,0,1-2-2m4,18V16h2.5L19.96,8.37A2.009,2.009,0,0,0,18.06,7h-.12a2,2,0,0,0-1.9,1.37l-.86,2.58A3.486,3.486,0,0,1,17,14v8ZM12.5,11.5A1.5,1.5,0,1,0,11,10a1.5,1.5,0,0,0,1.5,1.5M5.5,6a2,2,0,1,0-2-2,1.993,1.993,0,0,0,2,2m2,16V15H9V9A2.006,2.006,0,0,0,7,7H4A2.006,2.006,0,0,0,2,9v6H3.5v7ZM14,22V18h1V14a1.511,1.511,0,0,0-1.5-1.5h-2A1.511,1.511,0,0,0,10,14v4h1v4Z" fill="#303134"/>
  </g>
</svg>
