<svg id="Group_6875" data-name="Group 6875" xmlns="http://www.w3.org/2000/svg" xmlns:xlink="http://www.w3.org/1999/xlink" width="24" height="24" viewBox="0 0 24 24">
  <defs>
    <clipPath id="clip-path">
      <rect id="Rectangle_3151" data-name="Rectangle 3151" width="24" height="24" fill="none"/>
    </clipPath>
  </defs>
  <g id="Group_6874" data-name="Group 6874" clip-path="url(#clip-path)">
    <path id="Path_2341" data-name="Path 2341" d="M21.522,21.253c-.165-.163-.371-.3-.14-.581.043-.052-.067-.287-.16-.387-.352-.38-.737-.728-1.083-1.112a.533.533,0,0,1-.115-.436,2.219,2.219,0,0,0-.613-2.448c-.839-.824-1.655-1.672-2.5-2.491a1.409,1.409,0,0,1-.429-1.606,2.281,2.281,0,0,0-.592-2.425c-.531-.556-1.083-1.09-1.63-1.632a3.509,3.509,0,0,0-.286-.225L7.9,13.979c.642.642,1.245,1.254,1.858,1.856a2.29,2.29,0,0,0,2.46.623,1.382,1.382,0,0,1,1.569.4c.844.864,1.707,1.708,2.559,2.565a2.218,2.218,0,0,0,2.372.6.64.64,0,0,1,.51.129c.377.33.71.709,1.078,1.05.1.092.333.2.389.16.288-.23.42-.008.581.152m-9.228-9.487a.556.556,0,1,1,0,.785.557.557,0,0,1,0-.785m1.132,1.132a.556.556,0,0,1,.786,0,.477.477,0,0,1,.089.117l0,0v0a.556.556,0,1,1-.878-.121m1.132,1.133a.555.555,0,1,1,0,.785.555.555,0,0,1,0-.785m4.172,3.246a.666.666,0,0,1,.013.559.754.754,0,0,1-.39.388.7.7,0,0,1-.561-.025,6.11,6.11,0,0,1-.74-.718l0,0c-.244-.245-.485-.49-.731-.732-.218-.214-.253-.419,0-.635a4.335,4.335,0,0,0,.328-.336.368.368,0,0,1,.6-.015c.494.5,1.012.984,1.48,1.509" fill="#303134"/>
    <path id="Path_2342" data-name="Path 2342" d="M7.464,13.543a1.62,1.62,0,0,1-.094-1.505,7.75,7.75,0,0,1,3.048-3.826,9.064,9.064,0,0,1,1.7-.873,1.5,1.5,0,0,1,1.446.1l-6.1,6.1" fill="#303134"/>
    <path id="Path_2343" data-name="Path 2343" d="M5.165,5.1a8.884,8.884,0,0,1,6.087-2.611,1.1,1.1,0,0,1,.562.143.381.381,0,0,1,.034.374.768.768,0,0,1-.423.219A16.791,16.791,0,0,0,8.5,3.841a8.046,8.046,0,0,0-5.24,7.284c-.026.305.1.764-.4.744s-.366-.469-.349-.772a8.962,8.962,0,0,1,2.66-6" fill="#303134"/>
    <path id="Path_2344" data-name="Path 2344" d="M6.883,7.039a6.461,6.461,0,0,1,4.449-1.961c.273-.01.537.037.554.362s-.251.376-.521.4a5.628,5.628,0,0,0-5.512,5.521c-.019.271-.063.531-.4.517s-.361-.281-.361-.55A6.552,6.552,0,0,1,6.883,7.039" fill="#303134"/>
  </g>
</svg>
