<svg id="Group_6877" data-name="Group 6877" xmlns="http://www.w3.org/2000/svg" xmlns:xlink="http://www.w3.org/1999/xlink" width="24" height="24" viewBox="0 0 24 24">
  <defs>
    <clipPath id="clip-path">
      <rect id="Rectangle_3152" data-name="Rectangle 3152" width="24" height="24" fill="none"/>
    </clipPath>
  </defs>
  <g id="Group_6876" data-name="Group 6876" clip-path="url(#clip-path)">
    <path id="Path_2345" data-name="Path 2345" d="M5.3,7.471c.206-.052.37-.105.539-.133a1.034,1.034,0,0,1,.376-.006c.465.1.416.071.329.516-.029.146-.123.2-.265.226a2.44,2.44,0,0,0-.609.168.945.945,0,0,0-.525.814A1.5,1.5,0,0,1,5.4,8.883c.222-.081.449-.15.676-.214a1.449,1.449,0,0,1,.24-.019.717.717,0,0,0,.711-.88.723.723,0,0,0-.012-.079,3.26,3.26,0,0,0,.666-.125c.221-.089.308-.319.368-.579a2.589,2.589,0,0,1,.683,1.649,3.167,3.167,0,0,1-3.241,3.039,2.454,2.454,0,0,1-1.968-1.2A6.354,6.354,0,0,1,2.5,7.564a7.493,7.493,0,0,1,.667-4.105,4,4,0,0,1,.84-1.181,2.787,2.787,0,0,1,3.906.042,2.227,2.227,0,0,1,.449,2.527c-.088.192-.2.372-.321.6a4.237,4.237,0,0,1-.366-.437c-.2-.322-.391-.65-.567-.986A.9.9,0,0,0,6,3.482a5.624,5.624,0,0,0-.781.316l.021.084c.092-.006.185-.013.278-.016.16-.007.32-.023.478-.015a.594.594,0,0,1,.62.46,4.144,4.144,0,0,0,.283.6c-.149-.066-.258-.106-.358-.162s-.214-.163-.333-.217a.647.647,0,0,0-.882.376A.881.881,0,0,1,5.56,4.9a.979.979,0,0,1,.419.137.942.942,0,0,0,1.213.251c.038.04.078.083.12.126a.813.813,0,0,0,.645.277,2.876,2.876,0,0,1,2.8,2.1,7.729,7.729,0,0,1,.339,3.154,8.427,8.427,0,0,1-1.035,3.206,3.4,3.4,0,0,0,.1,3.095c.009.018.021.035.031.051a.089.089,0,0,0,.019.017,3.164,3.164,0,0,1,3.827,0c.105-.31.225-.616.312-.932a3.44,3.44,0,0,0-.394-2.633,7.578,7.578,0,0,1-.668-5.443A3.383,3.383,0,0,1,14.6,6.184a2.644,2.644,0,0,1,1.476-.49.811.811,0,0,0,.6-.282l.129-.136a.935.935,0,0,0,1.208-.238.883.883,0,0,1,.414-.143.754.754,0,0,1,.219.015.619.619,0,0,0-.848-.382,3.391,3.391,0,0,0-.318.2c-.11.064-.226.117-.382.2a7.67,7.67,0,0,1,.372-.81.561.561,0,0,1,.347-.228,4.112,4.112,0,0,1,.694-.018c.078,0,.156.008.246.014a1.344,1.344,0,0,0-1.428-.346.958.958,0,0,0-.439.471c-.174.329-.356.654-.552.97a4.705,4.705,0,0,1-.37.457,2.657,2.657,0,0,1-.542-1.377,2.438,2.438,0,0,1,2.051-2.5,2.774,2.774,0,0,1,2.924,1.2,6.046,6.046,0,0,1,1.038,2.694,7.221,7.221,0,0,1-.714,4.594,2.892,2.892,0,0,1-1.492,1.464,2.672,2.672,0,0,1-2.545-.359,3,3,0,0,1-1.426-2.537,2.378,2.378,0,0,1,.666-1.6c.265.61.419.7,1.05.618-.009.075-.019.143-.025.212a.7.7,0,0,0,.636.8,4,4,0,0,1,.651.084,3.6,3.6,0,0,1,.578.285.926.926,0,0,0-.67-.853,1.446,1.446,0,0,0-.39-.079.318.318,0,0,1-.331-.3c-.067-.344-.057-.387.3-.432a2.519,2.519,0,0,1,.611.032,2.014,2.014,0,0,1,.328.093,1.1,1.1,0,0,0-1.311-.617,3.693,3.693,0,0,0-.521.2c-.3.127-.4.111-.594-.154a.261.261,0,0,0-.3-.118A1.763,1.763,0,0,0,14.58,7.853a5.1,5.1,0,0,0-.429,1.936,6.775,6.775,0,0,0,.86,3.7,4.475,4.475,0,0,1,.017,4.185,1.648,1.648,0,0,1-.116.21,4.979,4.979,0,0,0-.613,1.036,1.379,1.379,0,0,1-.434.509,2.456,2.456,0,0,0-.9,1.923c0,.173,0,.346-.005.519a.645.645,0,0,1-.629.625c-.106.005-.213,0-.319,0a.664.664,0,0,1-.723-.721,3.633,3.633,0,0,0-.122-1.2,2.39,2.39,0,0,0-.761-1.1,1.608,1.608,0,0,1-.623-.9.266.266,0,0,0-.07-.118,4.127,4.127,0,0,1-.995-2.266A4.447,4.447,0,0,1,9.273,13.3,6.526,6.526,0,0,0,9.787,8.31a3.061,3.061,0,0,0-.433-.869A1.606,1.606,0,0,0,8,6.76a.307.307,0,0,0-.21.1c-.265.314-.32.334-.694.16a1.639,1.639,0,0,0-.9-.2,1.128,1.128,0,0,0-.891.644" fill="#303134"/>
  </g>
</svg>
