<svg id="Group_6823" data-name="Group 6823" xmlns="http://www.w3.org/2000/svg" xmlns:xlink="http://www.w3.org/1999/xlink" width="24" height="24" viewBox="0 0 24 24">
  <defs>
    <clipPath id="clip-path">
      <rect id="Rectangle_3126" data-name="Rectangle 3126" width="24" height="24" fill="none"/>
    </clipPath>
  </defs>
  <g id="Group_6822" data-name="Group 6822" clip-path="url(#clip-path)">
    <path id="Path_2235" data-name="Path 2235" d="M21.255,10.5a.755.755,0,0,0-.75.75h-1.54a6.978,6.978,0,0,0-1.52-3.65l1.09-1.09.01.01A.75.75,0,0,0,19.6,5.46L18.545,4.4a.75.75,0,0,0-1.07,1.05l-1.09,1.09a7.015,7.015,0,0,0-3.64-1.51V3.5h.01a.75.75,0,0,0,0-1.5h-1.5a.75.75,0,0,0-.01,1.5V5.05a6.934,6.934,0,0,0-3.64,1.51L6.515,5.47l.01-.01A.75.75,0,0,0,5.465,4.4L4.405,5.46a.75.75,0,0,0,1.05,1.07l1.09,1.09a6.889,6.889,0,0,0-1.5,3.63H3.505a.75.75,0,0,0-1.5,0v1.5a.75.75,0,0,0,1.5,0h1.54a7.053,7.053,0,0,0,1.5,3.63l-1.09,1.09a.742.742,0,0,0-1.05.01.754.754,0,0,0,0,1.06l1.06,1.06a.75.75,0,0,0,1.06-1.06l-.01-.01,1.09-1.09a6.982,6.982,0,0,0,3.63,1.51V20.5a.75.75,0,0,0,.01,1.5h1.5a.75.75,0,1,0,0-1.5h-.01V18.96a6.934,6.934,0,0,0,3.64-1.51l1.09,1.09a.742.742,0,0,0,.01,1.05.754.754,0,0,0,1.06,0l1.06-1.06a.75.75,0,1,0-1.06-1.06l-.01.01-1.09-1.09a7.025,7.025,0,0,0,1.52-3.65H20.5a.75.75,0,1,0,1.5,0v-1.5a.738.738,0,0,0-.74-.74M13.755,8a1,1,0,1,1-1,1,1,1,0,0,1,1-1m-1.75,5a1,1,0,1,1,1-1,1,1,0,0,1-1,1m-1.75-5a1,1,0,1,1-1,1,1,1,0,0,1,1-1m-1.75,5a1,1,0,1,1,1-1,1,1,0,0,1-1,1m1.75,3a1,1,0,1,1,1-1,1,1,0,0,1-1,1m3.5,0a1,1,0,1,1,1-1,1,1,0,0,1-1,1m.75-4a1,1,0,1,1,1,1,1,1,0,0,1-1-1" fill="#303134"/>
  </g>
</svg>
