<svg id="business_black_24dp" xmlns="http://www.w3.org/2000/svg" width="33" height="33" viewBox="0 0 33 33">
  <path id="Path_1615" data-name="Path 1615" d="M0,0H33V33H0Z" fill="none"/>
  <path id="Path_1616" data-name="Path 1616" d="M15.689,8.459V3H2V27.566H29.377V8.459ZM7.475,24.836H4.738v-2.73H7.475Zm0-5.459H4.738v-2.73H7.475Zm0-5.459H4.738v-2.73H7.475Zm0-5.459H4.738V5.73H7.475Zm5.475,16.377H10.213v-2.73h2.738Zm0-5.459H10.213v-2.73h2.738Zm0-5.459H10.213v-2.73h2.738Zm0-5.459H10.213V5.73h2.738ZM26.639,24.836H15.689v-2.73h2.738v-2.73H15.689v-2.73h2.738v-2.73H15.689v-2.73H26.639ZM23.9,13.918H21.164v2.73H23.9Zm0,5.459H21.164v2.73H23.9Z" transform="translate(0.811 1.217)" fill="#303134"/>
</svg>
