<svg id="personal_injury_black_24dp" xmlns="http://www.w3.org/2000/svg" width="33" height="33" viewBox="0 0 33 33">
  <rect id="Rectangle_2349" data-name="Rectangle 2349" width="33" height="33" fill="none"/>
  <g id="Group_5002" data-name="Group 5002" transform="translate(5.49 2.745)">
    <path id="Path_1613" data-name="Path 1613" d="M9.49,7.49a5.49,5.49,0,1,1,5.49,5.49A5.488,5.488,0,0,1,9.49,7.49ZM21.842,29.45h1.372A2.753,2.753,0,0,0,25.96,26.7v-6.56a4.077,4.077,0,0,0-2.21-3.651,20.448,20.448,0,0,0-1.908-.851Zm-6.4-6.862L19.1,14.805a18.642,18.642,0,0,0-4.117-.453,19.26,19.26,0,0,0-8.77,2.141A4.077,4.077,0,0,0,4,20.144V29.45H7.212a4.675,4.675,0,0,1-.467-2.059,4.809,4.809,0,0,1,4.8-4.8ZM12.235,29.45l1.935-4.117H11.549a2.059,2.059,0,1,0,0,4.117Z" transform="translate(-4 -2)" fill="#303134"/>
  </g>
</svg>
